<svg version="1.2" xmlns="http://www.w3.org/2000/svg" viewBox="0 0 1000 1000" width="1000" height="1000">
	<title>19913343_6171703-ai</title>
	<defs>
		<clipPath clipPathUnits="userSpaceOnUse" id="cp1">
			<path d="m758.9 788.85q-7.61-96.45-19.18-192.51c-2.78-23.07-8.61-45.67-10.83-68.81-2.04-21.25-2.88-42.24-17.65-59.49-6.28-7.33-14.83-12.93-24.12-15.24-3.96-6.56-8.73-11.94-13.76-14.85-23.9-13.85-45.08 13.12-52.72 32.76-40.86 104.96-56.93 217.57-71.79 329.31-0.43 3.18 1.69 6.18 4.85 6.74q0.07 0.02 0.14 0.03 2.9 0.51 5.81 0.89c10.7-1.1 26.5-0.3 40.54 0.77 10.61-0.66 21.22-1.73 31.83-2.57 4.6-13.08 3.81-33.88 5.77-46.21 3.12-19.62 6.19-39.25 9.44-58.84 4.49-27 9.3-53.96 14.94-80.75 4.11 55.72 15.41 112.37 21.09 167.2 0.37 3.6 0.84 7.44 3.19 10.19 2.55 2.99 6.69 3.98 10.56 4.64 17.75 3.02 36.08 2.54 53.64-1.39 2.49-0.55 5.15-1.29 6.75-3.28 1.87-2.33 1.73-5.62 1.5-8.59z"/>
		</clipPath>
	</defs>
	<style>
		.s0 { fill: #dedede } 
		.s1 { fill: #ebebeb } 
		.s2 { fill: none;stroke: #c9ced6;stroke-miterlimit:10;stroke-width: 1.5 } 
		.s3 { fill: none;stroke: #70588a;stroke-miterlimit:10;stroke-width: 1.5 } 
		.s4 { fill: #5cc9bf } 
		.s5 { fill: #c46345 } 
		.s6 { fill: #70588a } 
		.s7 { fill: #222221 } 
		.s8 { fill: #f2a888 } 
		.s9 { fill: #2c6aa3 } 
		.s10 { fill: #000000 } 
		.s11 { fill: #ab563c } 
		.s12 { fill: #ebc0a9 } 
		.s13 { fill: none;stroke: #ffffff;stroke-miterlimit:10 } 
		.s14 { fill: #bf7e71 } 
		.s15 { fill: #d78f73 } 
		.s16 { fill: #ffffff } 
		.s17 { fill: #d47172 } 
		.s18 { fill: #7bc9c2 } 
		.s19 { fill: #286794 } 
		.s20 { fill: #144b7d } 
		.s21 { fill: none;stroke: #666666;stroke-miterlimit:10 } 
	</style>
	<g id="OBLECTS">
		<g id="&lt;Group&gt;">
			<path id="&lt;Path&gt;" class="s0" d="m899.1 839.1c5.4-10.2 7.8-21.4 6-32.4-3.8-23.5-26.7-41.7-53.8-48.8-21.2-5.6-43.9-5.6-66.1-5.7q-273.3-0.3-546.6-0.7c-26.9 0-54.3 0-80 6.5-25.7 6.5-49.9 20.6-59.3 41-4.3 9.2-5.3 19.1-4.9 28.9 0.9 17 7 34.9 22.7 46.2 13 9.3 30.6 12.9 47.8 15 40.2 4.7 81.6 1 122.1 0.2 44.8-0.9 89.7-1.1 134.6-0.9 88.4 0.5 176.7 2.4 265.1 3.3 49.7 0.5 99.6 3.7 148.1-7.3 22.2-5 42.1-16.5 55.2-31.9 3.6-4.2 6.7-8.7 9.1-13.4z"/>
			<path id="&lt;Path&gt;" class="s1" d="m856.9 583.5c6.4-5.9 5.8-15.7 5.8-29.4q0-22.5 0-45 0-94 0-188 0-47.9 0-95.9c0-31.7 3-50.3-32.7-50.3q-28.4 0-56.8 0-88.5 0-177 0-182.1 0-364.2 0-25.6 0-51.2 0c-4.5 0-8.2 3.7-8.2 8.2q0 33.2 0 66.4 0 100.5 0 201 0 44.9 0 89.7c0 10.2-0.1 20.4 0.1 30.6 0.3 21.3 7.1 19 28 19q175.5 0 350.9 0 97.1 0 194.3 0 35.1 0 70.2 0c7.9 0 16.7 1.1 24.5 0 8-1.1 13.1-3.2 16.3-6.3z"/>
			<g id="&lt;Group&gt;">
				<g id="&lt;Group&gt;">
					<path id="&lt;Path&gt;" class="s2" d="m560.2 267.2h-85.3v-63.6h85.3z"/>
					<path id="&lt;Path&gt;" class="s3" d="m653.1 267.2h-85.3v-63.6h85.3z"/>
					<path id="&lt;Path&gt;" class="s3" d="m746 267.2h-85.3v-63.6h85.3z"/>
					<path id="&lt;Path&gt;" class="s3" d="m838.9 267.2h-85.3v-63.6h85.3z"/>
				</g>
				<g id="&lt;Group&gt;">
					<path id="&lt;Path&gt;" class="s3" d="m281.5 339.7h-85.3v-63.7h85.3z"/>
					<path id="&lt;Path&gt;" class="s3" d="m374.4 339.7h-85.3v-63.7h85.3z"/>
					<path id="&lt;Path&gt;" class="s3" d="m467.3 339.7h-85.3v-63.7h85.3z"/>
					<path id="&lt;Path&gt;" class="s3" d="m560.2 339.7h-85.3v-63.7h85.3z"/>
					<path id="&lt;Path&gt;" class="s3" d="m653.1 339.7h-85.3v-63.7h85.3z"/>
					<path id="&lt;Path&gt;" class="s4" d="m746 339.7h-85.3v-63.7h85.3z"/>
					<path id="&lt;Path&gt;" class="s3" d="m838.9 339.7h-85.3v-63.7h85.3z"/>
				</g>
				<g id="&lt;Group&gt;">
					<path id="&lt;Path&gt;" class="s3" d="m281.5 412.1h-85.3v-63.7h85.3z"/>
					<path id="&lt;Path&gt;" class="s3" d="m374.4 412.1h-85.3v-63.7h85.3z"/>
					<path id="&lt;Path&gt;" class="s4" d="m467.3 412.1h-85.3v-63.7h85.3z"/>
					<path id="&lt;Path&gt;" class="s3" d="m560.2 412.1h-85.3v-63.7h85.3z"/>
					<path id="&lt;Path&gt;" class="s3" d="m653.1 412.1h-85.3v-63.7h85.3z"/>
					<path id="&lt;Path&gt;" class="s4" d="m746 412.1h-85.3v-63.7h85.3z"/>
					<path id="&lt;Path&gt;" class="s3" d="m838.9 412.1h-85.3v-63.7h85.3z"/>
				</g>
				<g id="&lt;Group&gt;">
					<path id="&lt;Path&gt;" class="s3" d="m281.5 484.5h-85.3v-63.7h85.3z"/>
					<path id="&lt;Path&gt;" class="s3" d="m374.4 484.5h-85.3v-63.7h85.3z"/>
					<path id="&lt;Path&gt;" class="s3" d="m467.3 484.5h-85.3v-63.7h85.3z"/>
					<path id="&lt;Path&gt;" class="s5" d="m560.2 484.5h-85.3v-63.7h85.3z"/>
					<path id="&lt;Path&gt;" class="s3" d="m653.1 484.5h-85.3v-63.7h85.3z"/>
					<path id="&lt;Path&gt;" class="s3" d="m746 484.5h-85.3v-63.7h85.3z"/>
					<path id="&lt;Path&gt;" class="s3" d="m838.9 484.5h-85.3v-63.7h85.3z"/>
				</g>
				<g id="&lt;Group&gt;">
					<path id="&lt;Path&gt;" class="s3" d="m281.5 556.9h-85.3v-63.7h85.3z"/>
					<path id="&lt;Path&gt;" class="s3" d="m374.4 556.9h-85.3v-63.7h85.3z"/>
					<path id="&lt;Path&gt;" class="s3" d="m467.3 556.9h-85.3v-63.7h85.3z"/>
					<path id="&lt;Path&gt;" class="s3" d="m560.2 556.9h-85.3v-63.7h85.3z"/>
					<path id="&lt;Path&gt;" class="s3" d="m653.1 556.9h-85.3v-63.7h85.3z"/>
					<path id="&lt;Path&gt;" class="s3" d="m746 556.9h-85.3v-63.7h85.3z"/>
				</g>
				<path id="&lt;Compound Path&gt;" fill-rule="evenodd" class="s6" d="m588.2 223c-2.1 1.9-5.1 2.7-7.7 1.4-2.4-1.1-4.1-3.7-4.3-6.3-0.1-2.9 1.7-5.7 4.5-6.5q0.1-0.1 0.3 0c0.1-0.7 0.6-1.2 1.3-1.3 3.3-0.4 6.3 1.8 7.6 4.8 1.2 2.7 0.4 5.8-1.7 7.9zm-0.8-7.6c-0.5-0.8-1.3-1.4-2.2-1.8-0.8-0.4-1.7-0.6-2.5-0.5-0.4 0.1-0.8 0-1.1-0.2q-0.2 0.3-0.5 0.4c-2.2 0.7-3.3 3.3-2.8 5.5 0.5 1.8 1.9 3.5 3.7 4 1.9 0.6 4-0.4 5.2-1.9 1.2-1.6 1.4-3.9 0.2-5.5z"/>
				<path id="&lt;Compound Path&gt;" fill-rule="evenodd" class="s6" d="m683.3 226.3c-1.5 0.9-3.2 1.4-4.9 1.2-1.9-0.1-3.6-1.2-5-2.5-2.8-2.6-4-6.3-2.4-9.9 1-2.3 3.1-3.8 5.4-4.2 0.1-0.5 0.3-0.9 0.9-1 2.3-0.5 4.1 0.4 5.9 1.9 1.4 1.2 3.1 2.8 4 4.5 2 3.7-0.8 8-3.9 10zm0.8-9.8c-1.2-1.4-2.9-3.2-4.8-3.8q-0.1 0-0.2 0c-2.9-0.4-5.7 1.5-6.3 4.4-0.7 2.7 1 5.2 3.2 6.7 1 0.7 2.1 1.2 3.4 1.1 1.2-0.2 2.3-0.9 3.3-1.7 0.9-0.9 1.9-2 2.3-3.3 0.5-1.3-0.1-2.4-0.9-3.4z"/>
				<path id="&lt;Compound Path&gt;" fill-rule="evenodd" class="s6" d="m775.8 218.3c-1.4 3.3-5.1 5.3-8.6 5.3-3.6-0.1-7-2.6-7.6-6.4-0.1-1.1 0-2.2 0.4-3.2-0.3-0.4-0.3-1 0.1-1.4 1.6-1.7 3.4-3.1 5.7-3.8 2-0.7 4.3-0.6 6.3 0.3 1.5 0.7 2.9 1.9 3.7 3.4 0.9 1.8 0.8 3.9 0 5.8zm-2.3-2.5c0.2-2.3-2.1-4-4.2-4.3-2.2-0.3-4.6 0.8-6.6 2-0.8 1.3-1 3.1-0.2 4.6 1.2 2.1 3.6 3.1 6 2.6 2.3-0.5 4.8-2.3 5-4.9z"/>
				<g id="&lt;Group&gt;">
					<path id="&lt;Compound Path&gt;" fill-rule="evenodd" class="s6" d="m781.2 292.2c0.1 3.8-2.1 7.4-5.4 9-3.2 1.5-7 1.2-9.5-1.4-2.4-2.3-3.4-6.1-1.9-9.2 1.5-3.3 5.1-4.7 8.3-5.6 0.2-0.1 0.4 0 0.6 0.1 1.6-0.2 3.5 0.2 4.8 1.2 1.9 1.4 3 3.6 3.1 5.9zm-3 0c-0.4-2.5-2.7-4.7-5.3-3.8-0.8 0.3-1.7-0.3-1.9-1.1q0 0 0-0.1-1 0.6-1.9 1.3c-1.2 0.9-2.3 2-2.8 3.4-0.8 2.3 0.2 4.8 1.9 6.3 1.9 1.6 4.5 1.6 6.6 0.4 2.2-1.3 3.8-3.8 3.4-6.4z"/>
					<path id="&lt;Compound Path&gt;" fill-rule="evenodd" class="s6" d="m681.6 301.4c-3.3 2.3-7.8 1.9-11-0.5-0.8-0.7-1.6-1.4-2.3-2.2-0.7-0.8-1.6-1.6-2.1-2.5-1.1-2.2 0-4.5 1.4-6.2 2.4-3 5.8-6.3 9.9-5.4 0.7 0.1 0.7 0.9 0.3 1.4 3 0.2 5.8 2.3 6.9 5.1 1.4 3.7 0 8-3.1 10.3zm0.3-10c-1.3-2.4-4.2-3.2-6.7-2.7-1.1 0.2-1.9-1.3-0.9-1.9-0.7 0.3-1.3 0.8-1.8 1.3-1.4 1.2-2.7 2.6-3.6 4.1-0.4 0.7-0.8 1.5-0.6 2.2 0.1 0.8 0.7 1.4 1.2 1.9 1.1 1.2 2.3 2.4 3.7 3.2 2.4 1.4 5.7 1 7.7-0.9 1.8-1.9 2.3-5 1-7.2z"/>
					<path id="&lt;Compound Path&gt;" fill-rule="evenodd" class="s6" d="m590.3 299.2c-3.1 1.7-7 1.9-10.3 0.6-3.6-1.5-6.5-4.8-5.9-8.9 0.6-4.4 4.5-6.9 8.2-8.3 0.8-0.3 1.3 0.4 1.1 1.1 2-1 4.4-0.5 6.3 0.7 0.9 0.7 1.7 1.5 2.5 2.2 0.9 0.9 1.8 1.8 2.3 2.8 2.1 3.9-0.8 8-4.2 9.8zm1.3-9c-0.9-1.2-2.1-2.4-3.4-3.2-1.1-0.8-2.6-1.3-3.8-0.5-1.3 0.9-2.6-0.7-2.1-1.9-3 1.4-6.1 3.8-5.9 7.5 0.1 2.9 2.9 4.9 5.4 5.5 2.4 0.7 5.1 0.4 7.2-0.8 2.2-1.3 4.6-4.1 2.6-6.6z"/>
					<path id="&lt;Compound Path&gt;" fill-rule="evenodd" class="s6" d="m495.1 299.4c-3.6 2.2-8.6 2.9-12.2 0.3-3.3-2.3-4.8-6.6-2.9-10.2 2-3.9 5.9-6 10-6.5 0.6-0.1 0.9 0.6 0.7 1.1 3.6-0.1 7.3 1.1 9 4.6 2.1 4.3-1 8.6-4.6 10.7zm1.1-10.2c-2.5-2.7-6.5-1.8-9.7-1.9-0.5 0-0.9-0.3-1.1-0.7-1.6 1.2-2.9 2.7-3.5 4.5-1 2.8 0.9 5.8 3.4 6.9 3 1.2 6.6 0.1 9.1-1.7 2.2-1.7 4.1-4.8 1.8-7.1z"/>
					<path id="&lt;Compound Path&gt;" fill-rule="evenodd" class="s6" d="m405.5 298.6c-3.1 2.9-8 3.8-11.9 2.3-3.8-1.5-6.6-5.8-5.4-10 0.7-2.3 2.4-3.8 4.4-4.8q0.1-0.1 0.3-0.3c4.2-2.5 9.9-2.3 13 1.7 2.6 3.3 2.7 8.1-0.4 11.1zm-2.7-9.7c-2.2-2-5.8-1.7-8.2-0.3-0.7 0.4-1.4 0.2-1.8-0.2-1.2 1-2.1 2.2-2.3 3.7-0.2 3.2 2.2 5.6 5.1 6.3 2.8 0.6 6.3-0.2 8.2-2.5 1.7-2.1 0.9-5.2-1-7z"/>
					<path id="&lt;Compound Path&gt;" fill-rule="evenodd" class="s6" d="m315.2 302.6c-3 3.6-8.3 4.4-12.6 2.7-4.3-1.6-8.5-5.8-6.5-10.8 1.1-2.8 3.3-4.9 5.9-6.3 0.2-0.4 0.5-0.7 0.9-0.9 2.2-0.9 4.9-0.7 7.2-0.1 2.1 0.5 4.3 1.7 5.6 3.5 2.8 3.6 2.3 8.5-0.5 11.9zm-3.5-10.5c-2.2-1.4-4.8-1.5-7.3-1.9q-1.4 0.6-2.5 1.6c-1.4 1.2-2.8 2.9-3.1 4.8-0.5 3.4 4.2 5.6 6.9 6 3.1 0.4 6.2-0.7 7.6-3.6 1.3-2.5 0.7-5.4-1.6-6.9z"/>
					<path id="&lt;Compound Path&gt;" fill-rule="evenodd" class="s6" d="m221 300.4c-2.7 2.7-6.7 4.1-10.4 3.3-1.8-0.5-3.5-1.5-4.3-3.2-1-1.9-0.9-4.3-0.1-6.3 1.3-3.1 4-5.2 7.2-5.7 1.2-0.8 2.6-1.4 4.1-1.5 2.2-0.2 4.4 1 5.5 2.9 1.9 3.5 0.6 7.8-2 10.5zm-0.8-9.4c-1.9-2.3-5.6-0.3-7.5 0.9-0.6 0.3-1.2 0-1.5-0.4-1.4 1.1-2.5 2.7-2.9 4.5-0.2 1.3-0.2 2.9 0.8 3.9 0.9 0.9 2.1 1.2 3.3 1.3 2.7 0.1 5.5-1.3 7.2-3.4 1.4-1.8 2.2-4.9 0.6-6.8z"/>
				</g>
				<g id="&lt;Group&gt;">
					<path id="&lt;Compound Path&gt;" fill-rule="evenodd" class="s6" d="m781.2 436.1c0.1 3.8-2.1 7.4-5.4 9-3.2 1.5-7 1.2-9.5-1.4-2.4-2.3-3.4-6-1.9-9.1 1.5-3.4 5.1-4.7 8.3-5.7 0.2-0.1 0.4 0 0.6 0.2 1.6-0.3 3.5 0.1 4.8 1.1 1.9 1.4 3 3.6 3.1 5.9zm-3 0c-0.4-2.5-2.7-4.6-5.3-3.8-0.8 0.3-1.7-0.3-1.9-1.1q0 0 0-0.1-1 0.6-1.9 1.3c-1.2 0.9-2.3 2-2.8 3.4-0.8 2.3 0.2 4.9 1.9 6.4 1.9 1.6 4.5 1.5 6.6 0.3 2.2-1.3 3.8-3.8 3.4-6.4z"/>
					<path id="&lt;Compound Path&gt;" fill-rule="evenodd" class="s6" d="m681.6 445.1c-3.3 2.4-7.8 2-11-0.5-0.8-0.6-1.6-1.4-2.3-2.2-5.1-5.5 2.3-15.5 9.2-14.1 0.7 0.2 0.7 1 0.3 1.4 3 0.2 5.8 2.3 6.9 5.2 1.4 3.6 0 8-3.1 10.2zm0.3-10c-2.7-4.8-10.9-4.4-12.6 1.1-0.9 3 1.5 5.7 3.9 7.1 2.4 1.3 5.7 1 7.7-1 1.8-1.8 2.3-4.9 1-7.2z"/>
					<path id="&lt;Compound Path&gt;" fill-rule="evenodd" class="s6" d="m590.3 445.1c-3.1 1.7-7 1.9-10.3 0.5-3.6-1.4-6.5-4.8-5.9-8.9 0.6-4.3 4.5-6.9 8.2-8.3 0.8-0.3 1.3 0.5 1.1 1.1 2-0.9 4.4-0.5 6.3 0.8 0.9 0.6 1.7 1.4 2.5 2.2 0.9 0.8 1.8 1.7 2.3 2.8 2.1 3.8-0.8 8-4.2 9.8zm1.3-9c-0.9-1.2-2.1-2.4-3.4-3.3-1.1-0.7-2.6-1.2-3.8-0.4-1.3 0.8-2.6-0.8-2.1-1.9-3 1.3-6.1 3.8-5.9 7.4 0.1 2.9 2.9 4.9 5.4 5.6 2.4 0.6 5.1 0.3 7.2-0.9 2.2-1.2 4.6-4.1 2.6-6.5z"/>
					<path id="&lt;Compound Path&gt;" fill-rule="evenodd" class="s6" d="m495.1 444.7c-3.6 2.1-8.6 2.9-12.2 0.3-3.3-2.4-4.8-6.6-2.9-10.3 2-3.8 5.9-5.9 10-6.5 0.6 0 0.9 0.7 0.7 1.1 3.6 0 7.3 1.1 9 4.7 2.1 4.2-1 8.6-4.6 10.7zm1.1-10.3c-2.5-2.6-6.5-1.8-9.7-1.8-0.5 0-0.9-0.3-1.1-0.7-1.6 1.2-2.9 2.7-3.5 4.5-1 2.7 0.9 5.8 3.4 6.8 3 1.3 6.6 0.2 9.1-1.7 2.2-1.6 4.1-4.7 1.8-7.1z"/>
					<path id="&lt;Compound Path&gt;" fill-rule="evenodd" class="s6" d="m405.5 443.2c-3.1 2.8-8 3.7-11.9 2.2-3.8-1.5-6.6-5.8-5.4-10 0.7-2.3 2.4-3.7 4.4-4.7q0.1-0.2 0.3-0.4c4.2-2.4 9.9-2.2 13 1.8 2.6 3.3 2.7 8.1-0.4 11.1zm-2.7-9.7c-2.2-2.1-5.8-1.8-8.2-0.4-0.7 0.4-1.4 0.2-1.8-0.2-1.2 1-2.1 2.2-2.3 3.8-0.2 3.1 2.2 5.5 5.1 6.2 2.8 0.6 6.3-0.2 8.2-2.5 1.7-2.1 0.9-5.2-1-6.9z"/>
					<path id="&lt;Compound Path&gt;" fill-rule="evenodd" class="s6" d="m315.2 443.6c-3 3.7-8.3 4.4-12.6 2.7-4.3-1.6-8.5-5.8-6.5-10.8 1.1-2.8 3.3-4.9 5.9-6.3 0.2-0.3 0.5-0.7 0.9-0.9 2.2-0.9 4.9-0.7 7.2-0.1 2.1 0.5 4.3 1.8 5.6 3.5 2.8 3.6 2.3 8.5-0.5 11.9zm-3.5-10.5c-2.2-1.4-4.8-1.5-7.3-1.9q-1.4 0.6-2.5 1.6c-1.4 1.2-2.8 2.9-3.1 4.8-0.5 3.4 4.2 5.6 6.9 6 3.1 0.5 6.2-0.7 7.6-3.6 1.3-2.5 0.7-5.4-1.6-6.9z"/>
					<path id="&lt;Compound Path&gt;" fill-rule="evenodd" class="s6" d="m221 442.4c-2.7 2.7-6.7 4.1-10.4 3.2-1.8-0.4-3.5-1.5-4.3-3.1-1-1.9-0.9-4.3-0.1-6.3 1.3-3.1 4-5.2 7.2-5.7 1.2-0.8 2.6-1.4 4.1-1.5 2.2-0.2 4.4 0.9 5.5 2.9 1.9 3.4 0.6 7.8-2 10.5zm-0.8-9.4c-1.9-2.4-5.6-0.3-7.5 0.8-0.6 0.4-1.2 0.1-1.5-0.4-1.4 1.2-2.5 2.8-2.9 4.5-0.2 1.4-0.2 3 0.8 4 0.9 0.9 2.1 1.2 3.3 1.3 2.7 0 5.5-1.3 7.2-3.5 1.4-1.8 2.2-4.8 0.6-6.7z"/>
				</g>
				<g id="&lt;Group&gt;">
					<path id="&lt;Compound Path&gt;" fill-rule="evenodd" class="s6" d="m681.6 517.3c-3.3 2.3-7.8 1.9-11-0.5-2.4-1.9-3.9-3.6-3.6-6.8 0.1-1.4 0.4-2.8 1-4.1 1-2 2.7-3.5 4.7-4.2 4.3-1.5 10.4 1 12 5.3 1.4 3.7 0 8-3.1 10.3zm0.3-10.1c-2-3.5-7.3-3.4-10.4-1.5-4.5 2.7-2 7.6 1.7 9.7 2.4 1.4 5.7 1 7.7-0.9 1.8-1.9 2.3-5 1-7.3z"/>
					<path id="&lt;Compound Path&gt;" fill-rule="evenodd" class="s6" d="m590.3 515.1c-3.1 1.7-7 1.9-10.3 0.6-3.6-1.5-6.5-4.8-5.9-8.9 0.6-4.4 4.5-6.9 8.2-8.3 0.8-0.3 1.3 0.4 1.1 1.1 2-1 4.4-0.5 6.3 0.7 0.9 0.7 1.7 1.4 2.5 2.2 0.9 0.9 1.8 1.8 2.3 2.8 2.1 3.9-0.8 8-4.2 9.8zm1.3-9c-0.9-1.2-2.1-2.4-3.4-3.2-1.1-0.8-2.6-1.3-3.8-0.5-1.3 0.9-2.6-0.7-2.1-1.9-3 1.4-6.1 3.8-5.9 7.5 0.1 2.9 2.9 4.9 5.4 5.5 2.4 0.7 5.1 0.4 7.2-0.8 2.2-1.3 4.6-4.1 2.6-6.6z"/>
					<path id="&lt;Compound Path&gt;" fill-rule="evenodd" class="s6" d="m495.1 515.3c-3.6 2.2-8.6 2.9-12.2 0.3-3.3-2.3-4.8-6.6-2.9-10.2 2-3.9 5.9-6 10-6.5 0.6-0.1 0.9 0.6 0.7 1 3.6 0 7.3 1.1 9 4.7 2.1 4.3-1 8.6-4.6 10.7zm1.1-10.2c-2.5-2.7-6.5-1.9-9.7-1.9-0.5 0-0.9-0.3-1.1-0.7-1.6 1.2-2.9 2.7-3.5 4.5-1 2.8 0.9 5.8 3.4 6.9 3 1.2 6.6 0.1 9.1-1.7 2.2-1.7 4.1-4.8 1.8-7.1z"/>
					<path id="&lt;Compound Path&gt;" fill-rule="evenodd" class="s6" d="m405.5 514.5c-3.1 2.9-8 3.8-11.9 2.3-3.8-1.5-6.6-5.8-5.4-10 0.7-2.3 2.4-3.8 4.4-4.8q0.1-0.2 0.3-0.3c4.2-2.5 9.9-2.3 13 1.7 2.6 3.3 2.7 8.1-0.4 11.1zm-2.7-9.7c-2.2-2-5.8-1.7-8.2-0.3-0.7 0.4-1.4 0.2-1.8-0.2-1.2 1-2.1 2.2-2.3 3.7-0.2 3.2 2.2 5.6 5.1 6.3 2.8 0.6 6.3-0.2 8.2-2.5 1.7-2.1 0.9-5.2-1-7z"/>
					<path id="&lt;Compound Path&gt;" fill-rule="evenodd" class="s6" d="m315.2 518.5c-3 3.6-8.3 4.3-12.6 2.7-4.3-1.6-8.5-5.8-6.5-10.8 1.1-2.8 3.3-4.9 5.9-6.3 0.2-0.4 0.5-0.7 0.9-0.9 2.2-0.9 4.9-0.7 7.2-0.1 2.1 0.5 4.3 1.7 5.6 3.5 2.8 3.6 2.3 8.5-0.5 11.9zm-3.5-10.5c-2.2-1.4-4.8-1.5-7.3-1.9q-1.4 0.6-2.5 1.6c-1.4 1.2-2.8 2.9-3.1 4.8-0.5 3.4 4.2 5.6 6.9 6 3.1 0.4 6.2-0.7 7.6-3.6 1.3-2.5 0.7-5.4-1.6-6.9z"/>
					<path id="&lt;Compound Path&gt;" fill-rule="evenodd" class="s6" d="m221 516.3c-2.7 2.7-6.7 4.1-10.4 3.3-1.8-0.5-3.5-1.5-4.3-3.2-1-1.9-0.9-4.3-0.1-6.3 1.3-3.1 4-5.2 7.2-5.7 1.2-0.8 2.6-1.4 4.1-1.5 2.2-0.2 4.4 1 5.5 2.9 1.9 3.5 0.6 7.8-2 10.5zm-0.8-9.4c-1.9-2.3-5.6-0.3-7.5 0.9-0.6 0.3-1.2 0-1.5-0.5-1.4 1.2-2.5 2.8-2.9 4.6-0.2 1.3-0.2 2.9 0.8 3.9 0.9 0.9 2.1 1.2 3.3 1.3 2.7 0.1 5.5-1.3 7.2-3.5 1.4-1.7 2.2-4.8 0.6-6.7z"/>
				</g>
				<g id="&lt;Group&gt;">
					<path id="&lt;Compound Path&gt;" fill-rule="evenodd" class="s6" d="m781.2 363.7c0.1 3.8-2.1 7.4-5.4 9-3.2 1.5-7 1.2-9.5-1.4-2.4-2.3-3.4-6.1-1.9-9.2 1.5-3.3 5.1-4.7 8.3-5.6 0.2-0.1 0.4 0 0.6 0.1 1.6-0.2 3.5 0.2 4.8 1.2 1.9 1.4 3 3.6 3.1 5.9zm-3 0c-0.4-2.5-2.7-4.7-5.3-3.8-0.8 0.3-1.7-0.3-1.9-1.1q0 0 0-0.1-1 0.6-1.9 1.3c-1.2 0.9-2.3 2-2.8 3.4-0.8 2.3 0.2 4.8 1.9 6.3 1.9 1.6 4.5 1.6 6.6 0.4 2.2-1.3 3.8-3.8 3.4-6.4z"/>
					<path id="&lt;Compound Path&gt;" fill-rule="evenodd" class="s6" d="m590.3 372.7c-3.1 1.7-7 1.9-10.3 0.5-3.6-1.5-6.5-4.8-5.9-8.9 0.6-4.3 4.5-6.9 8.2-8.3 0.8-0.3 1.3 0.5 1.1 1.1 2-1 4.4-0.5 6.3 0.8 0.9 0.6 1.7 1.4 2.5 2.2 0.9 0.8 1.8 1.7 2.3 2.8 2.1 3.8-0.8 8-4.2 9.8zm1.3-9.1c-0.9-1.1-2.1-2.4-3.4-3.2-1.1-0.8-2.6-1.3-3.8-0.4-1.3 0.8-2.6-0.8-2.1-2-3 1.4-6.1 3.8-5.9 7.5 0.1 2.9 2.9 4.9 5.4 5.6 2.4 0.6 5.1 0.3 7.2-0.9 2.2-1.3 4.6-4.1 2.6-6.6z"/>
					<path id="&lt;Compound Path&gt;" fill-rule="evenodd" class="s6" d="m495.1 372.3c-3.6 2.1-8.6 2.8-12.2 0.2-3.3-2.3-4.8-6.5-2.9-10.2 2-3.8 5.9-6 10-6.5 0.6-0.1 0.9 0.6 0.7 1.1 3.6-0.1 7.3 1.1 9 4.6 2.1 4.3-1 8.7-4.6 10.8zm1.1-10.3c-2.5-2.6-6.5-1.8-9.7-1.9-0.5 0-0.9-0.3-1.1-0.6-1.6 1.1-2.9 2.7-3.5 4.5-1 2.7 0.9 5.7 3.4 6.8 3 1.3 6.6 0.2 9.1-1.7 2.2-1.6 4.1-4.7 1.8-7.1z"/>
					<path id="&lt;Compound Path&gt;" fill-rule="evenodd" class="s6" d="m405.5 370.7c-3.1 2.9-8 3.8-11.9 2.3-3.8-1.5-6.6-5.8-5.4-10 0.7-2.3 2.4-3.8 4.4-4.7q0.1-0.2 0.3-0.4c4.2-2.4 9.9-2.3 13 1.8 2.6 3.3 2.7 8.1-0.4 11zm-2.7-9.6c-2.2-2.1-5.8-1.8-8.2-0.4-0.7 0.4-1.4 0.2-1.8-0.2-1.2 1-2.1 2.2-2.3 3.8-0.2 3.1 2.2 5.5 5.1 6.2 2.8 0.6 6.3-0.2 8.2-2.5 1.7-2.1 0.9-5.2-1-6.9z"/>
					<path id="&lt;Compound Path&gt;" fill-rule="evenodd" class="s6" d="m315.2 371.1c-3 3.7-8.3 4.4-12.6 2.8-4.3-1.7-8.5-5.8-6.5-10.8 1.1-2.8 3.3-4.9 5.9-6.3 0.2-0.4 0.5-0.7 0.9-0.9 2.2-0.9 4.9-0.7 7.2-0.1 2.1 0.5 4.3 1.7 5.6 3.5 2.8 3.6 2.3 8.5-0.5 11.8zm-3.5-10.4c-2.2-1.5-4.8-1.5-7.3-1.9q-1.4 0.6-2.5 1.6c-1.4 1.2-2.8 2.9-3.1 4.8-0.5 3.4 4.2 5.6 6.9 6 3.1 0.4 6.2-0.8 7.6-3.6 1.3-2.5 0.7-5.4-1.6-6.9z"/>
					<path id="&lt;Compound Path&gt;" fill-rule="evenodd" class="s6" d="m221 370c-2.7 2.6-6.7 4.1-10.4 3.2-1.8-0.4-3.5-1.5-4.3-3.1-1-2-0.9-4.3-0.1-6.3 1.3-3.1 4-5.2 7.2-5.7 1.2-0.9 2.6-1.4 4.1-1.5 2.2-0.2 4.4 0.9 5.5 2.9 1.9 3.4 0.6 7.8-2 10.5zm-0.8-9.4c-1.9-2.4-5.6-0.4-7.5 0.8-0.6 0.4-1.2 0.1-1.5-0.4-1.4 1.2-2.5 2.8-2.9 4.5-0.2 1.4-0.2 3 0.8 4 0.9 0.9 2.1 1.2 3.3 1.2 2.7 0.1 5.5-1.2 7.2-3.4 1.4-1.8 2.2-4.8 0.6-6.7z"/>
					<path id="&lt;Compound Path&gt;" fill-rule="evenodd" class="s6" d="m683.1 363.2c0.1 3.3-1.7 6.6-4.5 8.2-2.7 1.6-6.8 2.2-9.3-0.2-1.3-1.2-1.6-3.3-1.8-5-0.2-1.7 0.2-3.5 1.1-4.9 1.3-2 3.2-3.2 5.5-3.7q0 0 0-0.1 0.3 0 0.5 0 0.3-0.1 0.6-0.1 0.4-0.1 0.7-0.2c0.6 0 1.1 0.1 1.6 0.2 1 0.2 2.1 0.5 2.9 1.1 1.7 1.1 2.6 2.7 2.7 4.7zm-2.1-0.6c-0.4-1.2-1.4-1.8-2.6-2.2-0.6-0.2-1.3-0.2-2-0.3-0.8 0-1.5-0.3-2.3-0.4q-0.3-0.1-0.5-0.4c-1.5 0.8-2.9 1.9-3.6 3.4-0.6 1.2-0.6 2.7-0.4 4 0.1 1.3 0.4 2.8 1.5 3.5 2.2 1.4 5.5 0.8 7.4-0.8 1.8-1.5 3.3-4.4 2.5-6.8z"/>
				</g>
			</g>
			<g id="&lt;Group&gt;">
				<g id="&lt;Group&gt;">
					<path id="&lt;Compound Path&gt;" class="s4" d="m715.7 524.5c4.3 5.5 9.6 10.1 14.3 15.3 4.9 5.5 8.8 11.9 13.7 17.4 4.3 4.7 9.5 8.8 15.1 11.9 4 2.1 13.3 7.4 18 6.2 9.2-2.3 2.3-17.7-0.5-22.8-3.5-6.1-8.3-11.4-13.5-16.1-5.3-4.9-11.2-9.3-16.9-13.7q-9.7-7.4-19.5-14.8c-1.5-1.2-3.1-2.5-4.7-3.6-1.3-0.9-2.8-1.7-4.4-1.9-2.8-0.3-5.4 1.5-6.8 3.9-3.5 6.2 1.4 13.4 5.2 18.2z"/>
					<path id="&lt;Path&gt;" class="s4" d="m809.3 527.7c-1.3-7.1-4.2-13.8-5.8-20.7-2.2-9.3-2.2-18.9-3.9-28.3-1.7-9.3-5.5-18.9-13.3-24.4-2.2-1.5-4.6-2.7-7.2-2.9-4.7-0.3-9.3 2.6-11.9 6.5-2.7 3.9-3.8 8.7-4.4 13.4-2.6 18.4 1 37.7 10.1 54 2.9 5.1 6.2 9.9 8.7 15.1 3.3 7 5 14.7 5.4 22.3 0.2 3.4 0.1 6.9 1.5 9.9 1.5 2.9 6.6 7.4 10.1 5.5 3.2-1.7 5.3-11.6 6.4-14.8 4-11.3 6.5-23.6 4.3-35.6z"/>
					<path id="&lt;Path&gt;" class="s4" d="m845.2 528.3q0.9-5.8 1-11.4c0.1-5.2-1.6-11.9-6.8-12.4-2.6-0.3-5 1.2-7 3-9.3 8.1-12.6 21-15.5 33-2.5 10.3-5.1 20.6-7.5 30.9-1.7 7.6-4.4 17.7-0.3 24.9 0.4 0.8 0.9 1.5 1.7 1.9 2.1 1.1 4.5-1.1 5.8-3 13-18.6 25.1-43.3 28.6-66.9z"/>
					<path id="&lt;Path&gt;" class="s7" d="m830.6 539.9c0-0.1-0.2-0.1-0.2-0.1-1.2 1.2-1.4 2.9-1.8 4.5q-0.7 2.7-1.4 5.4-1.6 5.9-3.6 11.7c-2.6 7.9-5.8 15.6-9.1 23.2-5.8 13.8-11.6 28.2-10.7 43.4 0.1 1.4 2.2 1.4 2.1 0-1-15.9 5.5-30.8 11.6-45.2 3.1-7.2 6-14.3 8.3-21.7q1.9-5.8 3.4-11.8 0.7-2.7 1.3-5.5c0.3-1.4 0.6-2.6 0.1-3.9z"/>
					<path id="&lt;Path&gt;" class="s7" d="m796 608.1c-0.3-10.8 0.1-21.6 0.8-32.4 1.1-15.4 2.4-31-0.2-46.3-1.4-8-3.8-15.9-7.9-23-0.5-1-2-0.1-1.5 0.9 9.1 17.4 9.6 37.1 8.5 56.3-0.6 10-1.5 20-1.7 30q-0.1 4.4-0.1 8.8-0.6-1.7-1.3-3.3c-2.9-7.2-6.5-14.1-10.6-20.8-8.6-13.7-19.1-26.1-30.3-37.9-0.7-0.8-1.9 0.4-1.2 1.2 10.6 11.8 20.7 24.2 28.9 37.7 4.1 6.7 7.8 13.6 10.8 20.9 1.6 3.9 2.9 8 4 12q0.2 6.2 0.8 12.3c0.1 1.2 2 1.2 1.9 0q-0.2-1.6-0.3-3.2 0.2 0.6 0.4 1.2c0.3 1.2 2.3 1 2.1-0.3-0.4-4.7-1.6-9.5-3.1-14.1z"/>
				</g>
				<g id="&lt;Group&gt;">
					<g id="&lt;Group&gt;">
						<g id="&lt;Group&gt;">
							<g id="&lt;Group&gt;">
								<path id="&lt;Path&gt;" class="s5" d="m821.3 604.8c-3.4 15.9-5.8 32.6-3.3 48.5-5.5 0.1-33.6 0.2-42.6 0.1q0.2-2.1 0.3-4.2c0.5-9.9-0.1-19.8-3.1-29.4-0.7-2.3-2.2-9.8-3.1-12l0.1-3z"/>
							</g>
						</g>
					</g>
				</g>
			</g>
			<path id="&lt;Path&gt;" class="s6" d="m460.8 660.2c3-0.1 6-0.1 8.9-0.2 3.9 0.5 7.7 0.8 11.5 1 6.1 0.3 12.3 0.3 18.4 0.3q9.5 0 18.9 0c-0.2 0.9-0.4 1.7-0.5 2.4q-1.3 5.3-2.5 10.7-4.3 20.4-8.6 40.8c-5.9 27.5-11.2 55.1-16.8 82.7q-2.4 11.7-4.8 23.4-1.2 5.8-2.3 11.7c-0.4 1.5-0.7 3.1-1.1 4.6h10.8c0.5-2.9 0.9-5.9 1.5-8.7q1.9-9.3 3.7-18.5 3.8-18.5 7.5-37c4.9-24.4 9.9-48.7 14.5-73.1q2-10.3 4-20.5c0.7-3.6 1.4-7.2 2-10.8q0.4-2.5 0.8-4.9c0.1-0.7 0.2-1.3 0.3-2q0 0 0 0 0.4-0.3 0.7-0.7 4.3 0 8.6 0c24.7 0.1 49.4 0 74 0q73.5-0.1 147-0.2 14.8-0.1 29.7-0.1c1 6.6 3 13.1 4.6 19.5 1.8 7 3.7 14 5.6 21.1 3.8 14 7.7 28 11.6 42q11.9 42.6 23.8 85.1 1.3 4.4 2.5 8.8h9.9q-0.4-1.6-0.9-3.2l-2.6-9.1-5.2-18.6q-5.2-18.2-10.3-36.3c-6.9-24.3-13.7-48.7-20.8-73q-2.9-10-5.9-20c-1.7-5.4-3.2-11-5.2-16.3 15.5 0 31 0 46.6-0.2 2.7 0 4-2.1 4-4.1 0-2.1-1.3-4.2-4-4.2-49.3-0.6-98.7-0.3-148-0.4-49-0.1-97.9-0.1-146.9-0.1-13.9 0-27.8 0.1-41.7 0.1-7 0-14-0.2-20.9 0.2-4.5 0.2-9.1 0.6-13.6 1.1q-4.4-0.1-8.8-0.2c-4.4-0.1-4.4 7 0 6.9z"/>
			<g id="&lt;Group&gt;">
				<g id="&lt;Group&gt;">
					<path id="&lt;Compound Path&gt;" class="s8" d="m413.5 478.3c4.1-1.2 7.4-5.8 9.1-9.6 1.8-4.1 1.5-9.5-2-12.3-2.1-1.9-5.2-2.3-8-2-8.9 0.9-15.7 8.9-18.1 17.5-2.5 8.5-1.5 17.7-0.4 26.5q1.1 9.7 2.3 19.4c1.5 12.6-0.2 25.8-0.2 38.5 0 1.5 0 3.2-0.8 4.6-1.4 2.5-4.7 3.2-7.5 3.7-13.9 2.2-28.1 4.9-42.1 4.4-12.3-0.5-26.4-4.4-32.1 10.4-3.3 8.3-0.6 18.1 5.2 24.9 5.9 6.7 14.4 10.6 23.2 12.3 8.7 1.8 3.2 2.9 12.1 2.5 12.9-0.5 40.5-2.6 52.8-6.3 9-2.7 17.6-7 24.5-13.4 6.3-5.9 7.9-13.2 8.6-21.6 1.4-17.9-4.2-35.8-9.1-52.8-4.5-15.8-13.3-30.4-17.4-46q0-0.4-0.1-0.7z"/>
					<path id="&lt;Path&gt;" class="s8" d="m306.8 568c-1.1-1.4-2.5-1.9-4-2.2-4.3-0.6-8.5-0.5-12.7-2-0.7-0.2-1.4-0.5-1.8-1.1-0.4-0.7-0.5-1.5-0.5-2.2q-0.1-3.1-0.2-6.1 0-0.3 0-0.6c9.2-2.8 12.9-13.4 13.8-23.3 1.1-12.5-0.1-28-11.5-35.7-7.3-4.9-17.1-5.6-25.1-2-8 3.6-14 11.2-15.9 19.8-1.3 6.3 0.8 8.5 1.6 14.9 0.6 5.4 1.3 10.9 1.6 16.3 0.2 6.4-0.2 14.5-1.6 19.1-0.5 1.5-2.4 2-3.9 2.7-1.4 0.7-3.9-0.3-5.1 1.1-5.2 5.7-10.2 11.9-15.9 17.2 13.5 5.7 27.7 9.7 42.1 12.2 10.1 1.8 30.6 7.8 37.6-3 1.5-2.4 2.3-5.1 2.8-7.8q0.2-1 0.3-2.1c0.7-4.7 1.9-11.2-1.6-15.2z"/>
					<path id="&lt;Path&gt;" class="s9" d="m360.4 567.3q-0.2-0.1-0.4-0.1c-4 0.4-8.1 0-12.1-0.2-6.9-0.5-13.9-0.8-20.8-1.3-13.1-0.8-26.1-2.2-39.1-3.8-1.5 2.8-3.6 5.2-6.4 7-10.1 6.3-24.3 2.5-30.9-6.9-6.5 0.5-13 1.4-19.4 2.7-8.7 1.8-17.4 4.4-25.3 8.4-7.7 3.9-15.3 9-19.7 16.7-2.6 4.5-4.4 9.8-5.9 14.8-1.6 5.4-2.6 10.9-3.1 16.5-1.3 15.9 2 30.4 4.1 46 2.9 20.1 3.7 54.7 23.5 66.3 7.1 4.2 15.5 5 23.7 5.8 28.6 2.5 58.9 4.7 85.6-4.2 2.6-11.4 4.4-22.9 5.5-34.7 0.9-10.3 1.7-20.7 2.1-31 0.4-9.8 1-19.5 1.3-29.3 0.2-5 0.3-10 0.3-15-0.1-3.3 23.8-0.9 34.6 0.2 2.2-10.7 3.4-21.6 4.3-32.6 0.4-5.4 0.8-10.9 1.2-16.3 0.3-4.2 2.5-8.4-3.1-9z"/>
					<path id="&lt;Path&gt;" class="s10" d="m378.2 822q-0.5-0.7-1-1.4c-6.9-8.9-18.9-14.7-28.6-19.9-10.7-5.7-22.8-10.4-35.2-9.7-11.2 0.6-26.7 8.2-29 20.1-0.3 1.3-0.4 2.7 0.2 4 1.3 3.1 5.5 3.4 8.9 3.4 14.4 0.1 28.3 4.6 41.7 9.3 7 2.5 13.9 5.1 20.9 7.4 6.3 2 21.5 10.8 25.9 1.6 2.4-5-1-10.7-3.8-14.8z"/>
					<path id="&lt;Path&gt;" class="s5" d="m424.1 718.9c-5.8-8.5-15.9-14.1-26.1-16.2-30.4-6.2-57.1 9.9-85.5 17.2-11.1 2.9-18.3 1.8-29.1 0.9-13.7-1.1-27.8 0.3-41.6-0.5-12.9-0.8-26.9-1.8-38.9 1.7q-2.4-1.5-4.8-3.1c-13.5-8.8-26.9-17.6-43.8-14.4-13.3 2.5-26.2 9.3-34.4 20.2-8.8 11.6-6.1 26.8 1.7 38.4 6.5 9.6 16.1 16.7 26 22.6 34.3 20.6 71.8 33.2 112.2 30.4 6-0.4 15 1.6 17.6 7.8 0.8 1.9 2 3.7 3 5.6 2 3.9 2.9 10.2 5.9 13.4 2.9 3.2 8.8 0.1 11.9-1.3 7.3-3.2 13.6-8.3 20.8-11.6 21.8-9.9 44.7-19 65.7-30.7 14-7.8 26.5-13.8 34.1-28.3 6.7-12.9 13.6-29.1 9.2-43.9-0.9-3-2.2-5.7-3.9-8.2z"/>
					<path id="&lt;Path&gt;" class="s11" d="m253.3 754.8q12.1 5.4 24.2 10.7c4.2 1.9 13.7 5 11.4 10.5-2 4.9-12.4 8.6-16.8 10.3-3 1.1-6.5 2.6-7.1 5.7q-0.1 0.7 0 1.3c4.6-1.6 9.2-3.3 13.7-5q1.6-0.7 3.2-1.3 6.1-3.3 12.1-6.7c29.9-16.9 58-36.8 84-59.3q1.5-1.4 2.9-2.8c-4.4 0.2-8.7 3.1-12.7 5.4-15.7 9.1-36.8 10.1-54.5 12.9-20.8 3.2-41.8 4.8-62.8 5-8.5 0-17.5-0.1-25.1 3.9 0.8-0.5 12.3 4.2 14.2 4.6 2.7 0.5 5 1.3 7.2 2.2 2 0.8 3.9 1.7 6.1 2.6z"/>
					<path id="&lt;Path&gt;" class="s10" d="m293.6 775c-2.6-2.3-5.5-4.2-8.4-6q-4.6-3-9.5-5.5c-6.6-3.4-13.6-6.2-20.4-9.1-14.2-6-28.3-12.2-42.1-18.9-3.9-1.8-7.7-4.6-11.4-6.6-3.7-2.1-7.3-4.3-11.1-6.2-0.6-0.3-1.4 0.5-0.8 1 5.8 4.6 12.7 7.8 19.3 11.1 6.7 3.3 13.5 6.4 20.3 9.5q10.8 4.8 21.6 9.4c6.9 3 13.9 5.8 20.7 9.1q5.5 2.7 10.9 5.9c3.4 2.1 6.6 4.5 9.9 6.6 0.3-0.4 0.7 0.1 1-0.3z"/>
					<path id="&lt;Path&gt;" class="s12" d="m275.3 818.5q-0.1-0.1-0.1-0.1-1.6-3.7-3.2-7.5-3.2-7.4-6.4-14.8c-0.2-0.5-18.6 8.8-20.2 10.1-0.7 0.6-1.4 1.2-1.8 2-0.7 1.1-0.8 2.4-1 3.6-0.4 3.5-0.9 7.1-0.3 10.5 0.7 3.5 2.8 6.9 6.2 8 2.5 0.8 5.3 0.2 7.9-0.4 4.9-1.1 9.8-2.1 14.6-3.6 2.2-0.6 4.4-0.2 6.6-0.7 0.2-0.1 0.3-0.1 0.5-0.2 0.7-0.8-2.4-6-2.8-6.9z"/>
					<path id="&lt;Path&gt;" class="s10" d="m250.3 800.1q-11.9 3.9-23.8 7.9c-1.2 0.4-2.6 0.9-3.4 1.9-0.7 1-1 2.2-1.1 3.4-1.8 12-4.3 23.8-6.1 35.8-1.5 10.8-1.3 21.2-2.9 32-0.6 4.3 6.2 5.7 9.2 4.2 2.3-1.2 4-3.4 5.5-5.6 6-8.8 10.3-17.4 12.4-27.9 0.6-3.2 1.1-6.5 2.9-9.3 2-3.2 5.4-5.2 8.7-7.1 1.4-0.9 4.2-2 6.5-3.3-3.2-10.5-5.8-21.2-7.9-32z"/>
					<path id="&lt;Path&gt;" class="s8" d="m296.3 740.5c1.5-0.7 2.6-2.1 3.5-4.6 1.4-4.2 0.6-9.2-1.8-12.9-3.1-4.8-8.7-8.5-14.3-9.7-5.7-1.2-11.3-3.2-17.1-4.4-4.2-0.9-8.3-2-12.5-3.2-12.6-3.5-26.1-6.2-38.1-11.5-0.7-0.3-1.5-0.7-1.9-1.4-0.6-0.9-0.3-2.1-0.1-3.1q6-24.3 11.1-48.7c1.1-5.6 2.2-11.2 2.2-16.8-0.2-10.3-4.3-20.5-11.4-27.9-4.3-4.6-10.3-8.3-16.5-7.5-5.2 0.6-9.6 4.1-12.5 8.4-2.9 4.3-4.4 9.3-6 14.2-5.2 16.7-11.3 33.5-13.7 50.8-0.6 4.5-0.5 9.1-0.5 13.6 0.1 13.1 0.4 27 7.6 37.9 23.7 35.9 78.6 31.5 115.4 28 2.8-0.2 4.9-0.3 6.6-1.2z"/>
					<path id="&lt;Path&gt;" class="s10" d="m246.5 537.2c-0.2-0.9-0.8-1.6-1.1-2.5-0.2-0.7-0.2-1.3-0.5-2-0.7-1.7-2-3.1-2.4-4.9-0.4-1.6 0.1-2.9 0.1-4.4 0-1.2-0.5-2.6-0.8-3.8q-0.9-4.4-1.5-8.8c-0.2-1.5-0.4-3 0-4.5 0.4-1.5 1.5-2.8 2.7-3.8 1.7-1.6 3.5-2.9 5.5-3.9 0.9-0.5 1.9-1 2.5-1.8 0.9-1.1 0.9-2.6 1.3-3.9 0.6-2.3 2.4-4.1 4.4-5.5 5-3.5 11.4-4.6 17.6-4.2 6.1 0.5 12 2.3 17.9 4.3 0.9 0.3 1.9 0.7 2.5 1.4 1.1 1.1 1.2 2.9 2.1 4.3 1.3 2 4.2 2.4 6.2 3.8 1.8 1.2 3 3.2 3.2 5.3 0.4 5.1-3.8 9.3-8.8 9.4-1.2 0.1-2.4-0.2-3.6-0.2-3.1 0-5.8 1.8-8.8 2.4-2.8 0.6-5.7 0.1-8.5 0.5-2.8 0.4-5.8 1.9-6.4 4.6-0.6 2.3-0.6 3.3-2.8 4.4-1.5 0.8-3.4 1-4.5 2.5-1.2 1.7-2 4.1-2.8 6.1q-1.4 3.3-2.7 6.7c-0.5 1.4-0.9 2.9-1.8 4.1-0.8 1.2-2.1 2.3-3.5 2.5-2.2 0.3-3.2-2.4-4.3-3.8-0.3-0.4-0.6-0.8-0.8-1.3-0.4-1-0.2-2-0.4-3z"/>
					<path id="&lt;Path&gt;" class="s10" d="m377.5 718.5c-7.8 4.2-14.9 10.2-21.7 15.9-7 5.8-14 11.7-21.5 16.8-3.8 2.5-7.8 4.8-11.9 6.7-4.2 2-8.6 3.7-12.9 5.6-4.3 1.8-8.6 3.9-12.4 6.6-4.1 2.8-7.6 6.4-11.6 9.3-4.4 3.1-9.4 5.4-14.3 7.7q-1.8 0.9-3.6 1.7c-1 0.5-2.1 0.9-2.9 1.7-0.7 0.6-0.8 1.5-0.6 2.4q0.3 2.2 0.8 4.4c0.2 0.7 1.3 0.6 1.2-0.1q-0.1-1.7-0.4-3.4c-0.1-0.7-0.3-1.3-0.1-1.9 0.3-0.7 1-0.9 1.6-1.2 2.1-1 4.2-2 6.4-3 4.2-2 8.4-4.1 12.3-6.8 4-2.7 7.3-6.2 11.2-9 3.7-2.7 7.8-4.8 12-6.6 4.2-1.9 8.5-3.6 12.7-5.5q6-2.7 11.6-6.4c7.4-4.7 14.1-10.3 20.8-15.9 3.9-3.2 7.8-6.4 11.8-9.5 3.9-3 8-5.7 12.2-8.4 0.7-0.5 0.1-1.5-0.7-1.1z"/>
					<g id="&lt;Group&gt;">
						<path id="&lt;Path&gt;" class="s8" d="m263.3 536.1c-7.5 2.3-12.6-5.4-10.6-10.7 2.8-7.4 12.9-6.7 15.2 0.7"/>
					</g>
					<path id="&lt;Path&gt;" class="s9" d="m198.6 577.3q0.2-0.2 0.5-0.4c1.9-1.2 3.6 1.1 5.2 1.9 2.3 1.2 4.7 2 7 3 3.6 1.5 6.9 3.4 9.9 5.8 6 4.6 10.9 10.9 13.7 18 6 15 3 31.9 0 47.8-10-0.2-18.8 0.4-28.8-1.5-12.9-2.6-25.4-6.5-37.6-11.5 1.1-6.5 2.3-13 4.1-19.4 2.3-8.7 5.4-17.2 9.8-25.1 4.2-7.5 8.9-13.9 16.2-18.6z"/>
					<g id="&lt;Group&gt;">
						<path id="&lt;Path&gt;" class="s10" d="m224.2 749.6h130.5c1.9 0 3.5-1.6 3.5-3.5 0-1.9-1.6-3.5-3.5-3.5h-130.5c-1.9 0-3.4 1.6-3.4 3.5 0 1.9 1.5 3.5 3.4 3.5z"/>
						<path id="&lt;Path&gt;" class="s10" d="m243.6 744.9h114.2l23.7-58.6c0.8-1.9-0.6-4-2.7-4h-107.9c-1.2 0-2.3 0.7-2.7 1.8z"/>
						<path id="&lt;Path&gt;" class="s13" d="m324.6 713.6c-1.3 3.2-5.4 5.8-9.2 5.8-3.8 0-6-2.6-4.7-5.8 1.2-3.1 5.3-5.7 9.1-5.7 3.8 0 6 2.6 4.8 5.7z"/>
					</g>
					<path id="&lt;Path&gt;" class="s10" d="m297.9 538.9c-0.7 0.2-1.2 0.8-1.9 1.1-0.7 0.3-1.5 0.5-2.2 0.5-1.7 0.1-3.4-0.6-4.9-1.4-0.3-0.2-0.7 0.2-0.4 0.5 1.6 1.2 3.3 2.1 5.4 2.2 0.9 0 1.8-0.1 2.6-0.4 0.8-0.4 1.8-0.9 2-1.9 0.1-0.3-0.2-0.7-0.6-0.6z"/>
					<path id="&lt;Path&gt;" class="s9" d="m450.2 428.9c-3.7 5.3-6 11.9-8.7 17.8q-4.3 9.2-8.6 18.4-1 2.2-2 4.3-0.6 1.3-1.2 2.6c-0.1 0.2-0.7 1.7-0.7 1.7-0.4 0.2-2.8-2.2-3.2-2.5q-1.7-1.4-3.3-2.9c-2.5-2.2-4.9-4.4-7.2-6.7-2.2-2.1-4.2-4.5-6.6-6.3-1.3-0.9-3.1 0.6-2.3 2 1.8 3 4.5 5.7 7 8.2 2.3 2.4 4.8 4.7 7.3 6.9 2.1 1.9 4.9 5.3 7.8 5.8 3.1 0.5 4.3-2.5 5.4-4.7 3.3-7.2 6.6-14.3 9.9-21.5q2.4-5.1 4.7-10.3c1.7-3.7 3.6-7.4 4.5-11.4 0.4-1.6-1.7-2.9-2.8-1.4z"/>
					<path id="&lt;Path&gt;" class="s14" d="m264.6 526.5c-0.6-1.3-2.1-2.3-3.6-2.3-0.2 0-0.3 0.4 0 0.4 1.2 0.3 2.2 1.1 2.7 2.3 0.4 1.2 0.1 2.6-0.6 3.6-0.3 0.4 0.3 0.8 0.7 0.5 1.2-1.1 1.4-3 0.8-4.5z"/>
					<path id="&lt;Path&gt;" class="s8" d="m413.3 478.7c4.9-3.4 9.9-6.8 13.9-11.3 0.8-0.9 1.6-1.9 1.8-3.1 0.2-1.2-0.4-2.6-1.5-2.9-1.3-0.3-2.5 0.8-3.5 1.7-3.8 3.5-8.8 5.8-13.9 6.2"/>
					<path id="&lt;Path&gt;" class="s14" d="m287.8 553.5c-0.7-0.5-1.7-0.2-2.5-0.1q-1.3 0.1-2.7 0.1c-1.7 0-3.5-0.1-5.2-0.2-0.8-0.1-1 1.3-0.2 1.4 1.8 0.3 3.6 0.4 5.4 0.4q1.4 0 2.7-0.1c0.8-0.1 2 0 2.6-0.6 0.3-0.3 0.2-0.7-0.1-0.9z"/>
					<path id="&lt;Path&gt;" class="s10" d="m124.3 737.3c1.2 2.5 0.6 5.5 1.8 8 0.8 1.8 2.5 3.1 3.7 4.7 1.8 2.6 2 6.2 0.3 8.9-1.7 2.6-5.4 3.9-8.2 2.5-2.2-1.1-3.5-3.6-4.4-5.9-1.9-4.9-3.8-12.5-2.2-17.7 1.3-4.2 6.7-5.1 9-0.5z"/>
					<path id="&lt;Path&gt;" class="s10" d="m427 729.5c-2-1.6-5-2-7.4-0.8-2.3 1.2-3.7 4-3.3 6.6 0.3 1.4 1.1 2.7 1.2 4.1 0 1.8-1.1 3.5-1.7 5.2-0.8 2.6-0.5 5.7 1.4 7.7 1.8 2 5.1 2.7 7.3 1.2 2.5-1.6 3.1-4.8 3.5-7.6 0.8-5.1 4-12.4-1-16.4z"/>
					<path id="&lt;Path&gt;" class="s15" d="m240.4 863.3c-0.4-0.2-0.9-0.3-1.4-0.3-0.3 0-0.7 0-1-0.1q-0.5 0-1 0-0.2 0-0.5 0 0 0-0.1 0c-0.7-0.2-1.3-0.4-2-0.5q-1-0.2-2-0.6c-0.5-0.3-1.3 0.1-1.6 0.6-0.3 0.6-0.3 1.4 0.2 1.8q0.9 0.9 1.9 1.6c0.8 0.5 1.6 0.8 2.5 1 1.7 0.5 3.9 0.8 5.5-0.2 0.6-0.4 0.9-1.1 0.8-1.8-0.1-0.7-0.6-1.3-1.3-1.5z"/>
					<path id="&lt;Path&gt;" class="s15" d="m241.2 854c-0.6-0.3-1.3-0.2-2-0.2l-1.5 0.1q-0.7 0-1.5 0c-0.3 0-0.7 0-1.1 0.1q-0.3 0.1-0.7 0.2c-0.5 0.2-0.9 0.7-1 1.2-0.1 0.6 0.2 1.2 0.7 1.5 0.3 0.2 0.6 0.3 0.9 0.5q0.4 0.1 0.8 0.1 0.7 0.2 1.4 0.3 0.7 0.2 1.5 0.3 0.3 0.1 0.7 0.2c0.3 0.1 0.6 0.1 0.9 0.1 0.3 0 0.6 0 0.9-0.1l0.6-0.2q0.4-0.2 0.6-0.6c0.3-0.4 0.5-0.9 0.5-1.4-0.1-1-0.7-1.8-1.7-2.1z"/>
					<path id="&lt;Path&gt;" class="s15" d="m246 847c-0.5-0.5-1.2-0.7-1.8-0.9q-1.1-0.3-2.1-0.6c-1.4-0.4-2.8-0.9-4.2-1.4-0.6-0.3-1.3 0.2-1.6 0.7-0.2 0.6 0 1.3 0.6 1.7 1.2 0.8 2.5 1.5 3.7 2.3q1 0.6 1.9 1.3c0.6 0.4 1.1 0.8 1.9 0.8 0.9 0 1.7-0.6 2.1-1.4 0.3-0.9 0.1-1.9-0.5-2.5z"/>
					<path id="&lt;Path&gt;" class="s15" d="m337.1 822.3c-0.3-0.4-1-0.6-1.5-0.3-0.7 0.5-1.4 1-2 1.7q-1 1-1.7 2.1-0.7 1-1.3 2.1c-0.2 0.5-0.4 1-0.6 1.4q-0.1 0.3-0.1 0.7c-0.1 0.4-0.1 0.8 0 1.2 0.3 1.1 1.7 1.4 2.5 0.6 0.3-0.2 0.5-0.4 0.6-0.7q0.1-0.1 0.1-0.1 0-0.1 0-0.1 0.1-0.1 0.1-0.2c0.2-0.5 0.3-0.9 0.5-1.4q0.1-0.3 0.2-0.5 0.1-0.1 0.1-0.3 0.3-0.5 0.5-1 0.6-1 1.2-1.9 0.4-0.5 0.7-1 0.1-0.2 0.3-0.4 0 0 0.1-0.1 0.1-0.1 0.2-0.3c0.4-0.4 0.5-1 0.1-1.5z"/>
					<path id="&lt;Path&gt;" class="s15" d="m345.4 826.2q-0.4-0.3-0.8-0.4c-0.4-0.2-1-0.1-1.3 0.1q-0.5 0.4-1 0.8c-0.3 0.3-0.6 0.7-0.8 1q-0.6 0.7-1 1.5-0.5 1-0.9 2-0.2 0.4-0.3 0.8c-0.1 0.5-0.1 1-0.1 1.4-0.1 1.1 0.8 2 1.8 2.1 1 0.1 2-0.5 2.3-1.5 0.1-0.3 0.2-0.5 0.2-0.8q0.1-0.4 0.2-0.9 0.2-0.7 0.5-1.4 0.3-0.6 0.6-1.2 0.4-0.7 0.8-1.4c0.4-0.6 0.3-1.6-0.2-2.1z"/>
					<path id="&lt;Path&gt;" class="s10" d="m231.3 625.2c-1.1 4.6-2 9.3-3 14q-0.7 3.5-1.4 7-0.3 1.6-0.7 3.2c-0.1 0.6-0.4 3.9-1.6 3.2-0.8-0.5-1.5 0.7-0.7 1.2 1.6 1 3-0.5 3.4-2 0.8-2.8 1.3-5.8 2-8.6 1.3-5.8 2.8-11.6 4-17.4 0.2-1.4-1.7-1.9-2-0.6z"/>
					<path id="&lt;Path&gt;" class="s10" d="m323.8 623.8q-0.3-0.2-0.7-0.5c-0.1-0.1-0.3-0.3-0.5-0.5-0.3-0.4-0.8-0.7-1.1-1.1q-0.6-0.5-1.2-1.1-0.2-0.3-0.6-0.6c-0.4-0.4-0.8-0.6-1.4-0.6-0.4 0-0.8 0.2-1 0.5-0.3 0.3-0.3 0.7-0.3 1.1 0.2 0.8 1 1.3 1.6 1.7q0.8 0.5 1.5 0.9c0.5 0.3 1 0.5 1.6 0.8 0.2 0.1 0.5 0.1 0.7 0.2 0.2 0.1 0.4 0.3 0.7 0.4 0.8 0.5 1.5-0.7 0.7-1.2z"/>
				</g>
				<path id="&lt;Path&gt;" class="s10" d="m288.7 562c-0.1-0.3-0.4-0.4-0.6-0.3-1.3 0.7-2 2.5-2.9 3.7-1.1 1.3-2.4 2.4-3.9 3.3-3.4 2.1-7.1 2.4-11 2-4.2-0.3-8.6-0.8-12.4-2.6-1.6-0.7-3.1-1.7-4.4-3q-0.9-0.9-1.5-1.9c-0.5-0.7-0.7-1.4-1.4-2-0.3-0.2-0.9 0-1 0.5-0.2 1.3 0.8 2.6 1.5 3.6 1 1.2 2.1 2.3 3.4 3.1 2.8 2 6.1 3 9.5 3.6 6.6 1.2 13.8 2 19.6-2.3q2-1.5 3.5-3.5c0.9-1.1 2.1-2.8 1.6-4.2z"/>
				<path id="&lt;Path&gt;" class="s14" d="m433.6 584.4c-1.2 2.1-2.3 4.3-3.6 6.4-1.4 2-3 3.9-4.7 5.7-0.7 0.6 0.3 1.6 1 1q2.8-2.6 5-5.8c1.4-2.2 2.6-4.5 3.3-6.9 0.2-0.6-0.7-1-1-0.4z"/>
				<path id="&lt;Path&gt;" class="s14" d="m178.2 710.2q-0.6-0.9-1.1-2c-0.6-1.3-1.1-2.7-1.3-4.2-0.1-0.7-1.2-0.5-1.2 0.2 0 1.6 0.3 3.2 0.9 4.7q0.5 1.1 1.1 2.2c0.5 0.7 1 1.6 1.9 1.8 0.3 0.1 0.8-0.2 0.8-0.6-0.1-0.8-0.6-1.4-1.1-2.1z"/>
			</g>
			<g id="&lt;Group&gt;">
				<g id="&lt;Group&gt;">
					<g id="&lt;Group&gt;">
						<g id="&lt;Group&gt;">
							<g id="&lt;Group&gt;">
								<path id="&lt;Compound Path&gt;" fill-rule="evenodd" class="s5" d="m301.8 180.3c-4.7 0.5-8 4.7-7.6 9.4 0.5 4.7 4.6 8.1 9.3 7.7 0.3-0.1 0.5-0.2 0.8-0.2q-0.3 5.1-1.6 9.9c-0.3-0.2-0.5-0.4-0.8-0.5-4.2-1.9-9.2 0-11.1 4.3-1.9 4.3 0 9.4 4.2 11.4 0.3 0.1 0.6 0.2 0.9 0.3q-2.8 4.2-6.3 7.8c-0.1-0.3-0.3-0.6-0.5-0.9-2.7-3.9-7.9-4.7-11.7-2-3.8 2.8-4.6 8.2-1.9 12 0.2 0.3 0.4 0.5 0.7 0.8q-4.5 2.2-9.4 3.6c0.1-0.4 0.1-0.7 0-1.1-0.4-4.7-4.5-8.2-9.2-7.7-4.6 0.5-8 4.7-7.5 9.4 0.1 0.4 0.2 0.8 0.2 1.1q-5.1-0.3-9.9-1.6c0.2-0.3 0.5-0.7 0.6-1.1 2-4.3 0.1-9.4-4.2-11.3-4.2-2-9.2-0.1-11.1 4.3-0.2 0.4-0.3 0.8-0.4 1.2q-4.2-2.9-7.8-6.5c0.4-0.3 0.8-0.5 1.1-0.7 3.8-2.8 4.7-8.2 1.9-12-2.7-3.9-7.9-4.7-11.7-2q-0.5 0.5-1 0.9-2.2-4.6-3.6-9.7 0.7 0.1 1.4 0c4.6-0.4 8-4.7 7.5-9.4-0.4-4.7-4.6-8.1-9.2-7.6q-0.7 0-1.3 0.2 0.4-5.2 1.7-10.2 0.5 0.4 1.2 0.7c4.2 1.9 9.2 0 11.1-4.3 1.9-4.3 0-9.4-4.2-11.3-0.4-0.2-0.8-0.3-1.2-0.5q2.8-4.3 6.4-7.9c0.2 0.4 0.4 0.8 0.7 1.1 2.7 3.9 7.9 4.7 11.7 2 3.8-2.8 4.6-8.2 1.9-12-0.2-0.3-0.5-0.6-0.8-0.9q4.5-2.2 9.4-3.6c0 0.4 0 0.8 0 1.2 0.5 4.8 4.6 8.2 9.2 7.7 4.7-0.5 8-4.7 7.6-9.4-0.1-0.3-0.2-0.7-0.2-1q5 0.3 9.8 1.7c-0.2 0.3-0.4 0.6-0.6 0.9-1.9 4.3 0 9.4 4.3 11.4 4.2 1.9 9.2 0 11.1-4.4 0.1-0.3 0.2-0.6 0.3-0.9q4.1 2.9 7.6 6.5c-0.3 0.1-0.6 0.3-0.9 0.5-3.7 2.7-4.6 8.1-1.9 11.9 2.8 3.9 8 4.7 11.8 2 0.2-0.2 0.4-0.4 0.6-0.6q2.2 4.5 3.5 9.4c-0.3 0-0.6 0-0.9 0zm-51.8-21.4c-18.8 2-32.5 19.1-30.6 38.3 1.9 19.2 18.7 33.2 37.5 31.3 18.8-1.9 32.6-19.1 30.6-38.3-1.9-19.2-18.7-33.2-37.5-31.3z"/>
							</g>
							<path id="&lt;Compound Path&gt;" fill-rule="evenodd" class="s5" d="m258.7 154.4c21.2 2.9 36.2 22.9 33.4 44.6-2.9 21.8-22.6 37-43.8 34.1-21.3-2.9-36.3-22.9-33.4-44.7 2.8-21.7 22.5-37 43.8-34zm-31.2 35.8c-1.9 14.6 8.2 28 22.5 30 14.3 2 27.5-8.3 29.4-22.9 1.9-14.6-8.2-28.1-22.5-30-14.2-2-27.4 8.3-29.4 22.9z"/>
						</g>
					</g>
				</g>
			</g>
			<g id="&lt;Group&gt;">
				<g id="&lt;Group&gt;">
					<g id="&lt;Group&gt;">
						<g id="&lt;Group&gt;">
							<g id="&lt;Group&gt;">
								<path id="&lt;Compound Path&gt;" fill-rule="evenodd" class="s5" d="m394.1 183.3c-4.3 0.4-7.3 4.3-6.9 8.6 0.4 4.4 4.2 7.5 8.4 7.1 0.3 0 0.6-0.1 0.8-0.2q-0.3 4.7-1.4 9.1c-0.3-0.1-0.5-0.3-0.8-0.4-3.9-1.8-8.4 0-10.2 3.9-1.7 4 0 8.7 3.9 10.4 0.2 0.2 0.5 0.2 0.8 0.3q-2.5 3.9-5.8 7.2c-0.1-0.3-0.2-0.6-0.4-0.8-2.5-3.6-7.3-4.4-10.8-1.8-3.4 2.5-4.2 7.4-1.7 11 0.2 0.2 0.4 0.5 0.6 0.7q-4.1 2.1-8.6 3.3c0.1-0.3 0.1-0.7 0-1-0.4-4.4-4.2-7.5-8.4-7.1-4.3 0.5-7.3 4.3-6.9 8.6 0 0.4 0.1 0.7 0.2 1.1q-4.7-0.3-9.1-1.5c0.2-0.3 0.4-0.7 0.6-1 1.7-4 0-8.6-3.9-10.4-3.9-1.8-8.5 0-10.2 3.9-0.2 0.4-0.3 0.8-0.4 1.1q-3.9-2.6-7.2-6 0.6-0.2 1.1-0.6c3.5-2.5 4.2-7.5 1.7-11-2.5-3.5-7.3-4.3-10.7-1.8q-0.5 0.4-0.9 0.9-2.1-4.3-3.3-8.9 0.6 0 1.2-0.1c4.3-0.4 7.4-4.3 6.9-8.6-0.4-4.3-4.2-7.5-8.4-7q-0.6 0.1-1.2 0.2 0.3-4.8 1.5-9.4 0.5 0.4 1.1 0.7c3.9 1.8 8.5 0 10.2-4 1.8-3.9 0-8.6-3.9-10.4q-0.5-0.2-1.1-0.4 2.6-3.9 6-7.3 0.2 0.6 0.5 1.1c2.5 3.5 7.4 4.3 10.8 1.8 3.5-2.6 4.3-7.5 1.8-11-0.3-0.3-0.5-0.6-0.8-0.9q4.1-2 8.7-3.2c0 0.4 0 0.7 0 1.1 0.4 4.3 4.2 7.5 8.4 7 4.3-0.4 7.4-4.3 6.9-8.6 0-0.3-0.1-0.6-0.1-1q4.6 0.4 9 1.6c-0.2 0.3-0.4 0.6-0.5 0.9-1.8 3.9 0 8.6 3.8 10.4 3.9 1.8 8.5 0 10.2-4 0.2-0.2 0.2-0.5 0.3-0.8q3.8 2.6 7 5.9c-0.3 0.1-0.5 0.3-0.8 0.4-3.4 2.6-4.2 7.5-1.7 11 2.5 3.6 7.3 4.4 10.8 1.8 0.2-0.1 0.4-0.3 0.6-0.5q1.9 4.1 3.1 8.6c-0.3 0-0.5 0-0.8 0zm-47.5-19.6c-17.3 1.8-29.9 17.5-28.1 35.2 1.7 17.6 17.1 30.4 34.4 28.7 17.3-1.8 29.9-17.6 28.1-35.2-1.7-17.6-17.1-30.5-34.4-28.7z"/>
							</g>
							<path id="&lt;Compound Path&gt;" fill-rule="evenodd" class="s5" d="m354.5 159.5c19.5 2.7 33.3 21.1 30.7 41-2.7 19.9-20.7 34-40.2 31.3-19.5-2.7-33.3-21.1-30.7-41 2.7-19.9 20.7-34 40.2-31.3zm-28.5 32.9c-1.8 13.4 7.4 25.7 20.6 27.5 13.1 1.8 25.2-7.6 26.9-21 1.8-13.4-7.4-25.7-20.5-27.5-13.2-1.8-25.3 7.6-27 21z"/>
						</g>
					</g>
				</g>
			</g>
			<g id="&lt;Group&gt;">
				<g id="&lt;Group&gt;">
					<path id="&lt;Compound Path&gt;" class="s16" d="m603.6 196.4c-2.2-3.2-6.4-4.2-10-4.8-5.4-0.7-10.9-1.1-16.3-1.3-11.5-0.6-23.1-0.3-34.6-0.2q-17.6 0.3-35.3 0.5-17.6 0.2-35.1 0.5-8.7 0.1-17.5 0.2c-4.6 0.1-9.3 0-13.9 0.9-4 0.8-7.8 2.4-10.7 5.3-0.2-0.1-0.5 0-0.5 0.4 1.7 23.1 1.3 46.4 0.3 69.6-1 23.2-2.6 46.5-3.2 69.7-0.2 5.5-0.5 11.1-0.2 16.5 0.2 3.5 1.2 7.6 4.8 9 2.4 1 5.2 0.7 7.7 0.8q4.3 0.2 8.6 0.4 8.9 0.3 17.7 0.6 35.2 1.2 70.4 1.4 17.5 0.1 35.1 0 8.8-0.1 17.6-0.2c4 0 8.6 0.1 12-2.3 3.8-2.6 4-7.2 3.8-11.4q-0.3-8.7-0.5-17.4c-0.3-11.8-0.5-23.5-0.6-35.3q-0.3-35 0.7-70 0.3-8.8 0.7-17.6c0.1-2.9 0.2-5.8 0.3-8.7 0.1-2.2 0-4.6-1.3-6.6z"/>
				</g>
				<path id="&lt;Compound Path&gt;" fill-rule="evenodd" class="s10" d="m604.9 203c-0.1 2.9-0.2 5.8-0.3 8.7q-0.4 8.8-0.7 17.6-1 35-0.7 70c0.1 11.8 0.3 23.5 0.6 35.3q0.2 8.7 0.5 17.4c0.2 4.2 0 8.8-3.8 11.4-3.4 2.4-8 2.3-12 2.3q-8.8 0.1-17.6 0.2-17.6 0.1-35.1 0-35.2-0.2-70.4-1.4-8.8-0.3-17.7-0.6-4.3-0.2-8.6-0.4c-2.5-0.1-5.3 0.2-7.7-0.8-3.6-1.4-4.6-5.5-4.8-9-0.3-5.4 0-11 0.2-16.5 0.6-23.2 2.2-46.5 3.2-69.7 1-23.2 1.4-46.5-0.3-69.6 0-0.4 0.3-0.5 0.5-0.4 2.9-2.9 6.7-4.5 10.7-5.3 4.6-0.9 9.3-0.8 13.9-0.9q8.8-0.1 17.5-0.2 17.5-0.3 35.1-0.5 17.7-0.2 35.3-0.5c11.5-0.1 23.1-0.4 34.6 0.2 5.4 0.2 10.9 0.6 16.3 1.3 3.6 0.6 7.8 1.6 10 4.8 1.3 2 1.4 4.4 1.3 6.6zm-1.9-4.6c-1.5-4-6.5-5-10.2-5.5-11-1.4-22.2-1.5-33.3-1.5-22.7 0.1-45.4 0.6-68.2 0.9q-17 0.3-34.1 0.5c-8.6 0.1-19.5-0.9-26.1 5.9q-0.2 0.2-0.4 0.2 0.6 7.7 0.9 15.5c0.9 22.5 0 45.1-1.1 67.6-1.1 22.5-2.5 45.1-2.7 67.7-0.1 3.7-0.5 9.3 3.2 11.5 2.3 1.4 5.6 1 8.1 1.1q4.3 0.2 8.6 0.4 17.1 0.6 34.2 1.1 34.1 0.8 68.3 0.9 17.1 0 34.1-0.2c4.5-0.1 9.6 0.4 13.8-1.3 2.1-0.9 3.7-2.4 4.4-4.7 0.7-2.3 0.5-4.8 0.4-7.2q-1.2-34.1-1.2-68.2 0.1-34.1 1.4-68.1 0.1-4.3 0.3-8.6c0.1-2.6 0.6-5.5-0.4-8z"/>
				<path id="&lt;Compound Path&gt;" fill-rule="evenodd" class="s10" d="m603.9 203.9c-0.1 2.9-0.3 5.7-0.4 8.6q-0.3 8.7-0.6 17.4-1 34.6-0.7 69.2c0 11.6 0.3 23.2 0.6 34.8q0.2 8.6 0.5 17.2c0.1 4.2 0 8.7-3.8 11.3-3.4 2.3-7.9 2.3-11.8 2.3q-8.7 0.1-17.5 0.2-17.3 0.1-34.7 0-34.8-0.3-69.5-1.4-8.8-0.3-17.5-0.6-4.2-0.2-8.5-0.4c-2.4-0.1-5.3 0.2-7.6-0.8-3.6-1.4-4.6-5.4-4.8-8.9-0.3-5.4 0.1-10.9 0.2-16.3 0.6-23 2.2-45.9 3.2-68.9 1-22.9 1.4-45.9-0.3-68.8 0-0.3 0.3-0.4 0.5-0.4 2.9-2.9 6.6-4.4 10.5-5.2 4.6-0.9 9.2-0.8 13.9-0.9q8.6-0.1 17.2-0.2 17.3-0.2 34.7-0.5 17.5-0.2 34.9-0.5c11.4-0.1 22.8-0.3 34.1 0.2 5.4 0.2 10.9 0.6 16.2 1.3 3.6 0.6 7.7 1.6 9.8 4.8 1.3 1.9 1.5 4.3 1.4 6.5zm-1.9-4.6c-1.5-3.9-6.4-4.9-10.1-5.4-10.9-1.4-22-1.5-32.9-1.5-22.5 0.1-44.9 0.6-67.4 0.9q-16.9 0.3-33.7 0.5c-8.5 0.1-19.3-0.9-25.8 5.8q-0.2 0.2-0.4 0.2 0.6 7.7 0.9 15.3c0.9 22.3 0 44.6-1.1 66.8-1.1 22.3-2.5 44.6-2.7 66.9 0 3.7-0.4 9.2 3.2 11.4 2.3 1.4 5.5 1 8 1.1q4.3 0.2 8.5 0.4 16.9 0.6 33.8 1.1 33.7 0.8 67.5 0.9 16.9 0 33.7-0.2c4.4-0.1 9.5 0.4 13.6-1.3 2.1-0.8 3.7-2.4 4.4-4.6 0.7-2.3 0.5-4.8 0.4-7.2q-1.2-33.7-1.2-67.4 0.1-33.6 1.3-67.3 0.2-4.2 0.4-8.5c0.1-2.5 0.5-5.4-0.4-7.9z"/>
			</g>
			<path id="&lt;Path&gt;" class="s17" d="m585 229.2c-9.5-1.2-19.3-0.6-28.8-0.5q-14.2 0-28.4 0c-16.6 0.1-33.2 0-49.8 0.8v2.3c16.6 0.7 33.2 0.7 49.8 0.7l28.4 0.1c9.5 0 19.3 0.7 28.8-0.5 1.9-0.2 1.9-2.7 0-2.9z"/>
			<path id="&lt;Path&gt;" class="s17" d="m580.4 261.4c-9.3-0.8-18.6-0.6-27.9-0.6q-14.1 0-28.3 0c-9.3 0-18.5 0.1-27.8 0.1-6.1 0-12.3 0.1-18.4 0.5v3.4c6 0.4 12 0.5 17.9 0.5q14.2 0.1 28.3 0.1 13.9 0 27.8 0c9.5 0 18.9 0.2 28.4-0.6 2.2-0.2 2.2-3.2 0-3.4z"/>
			<path id="&lt;Path&gt;" class="s17" d="m578.8 285.4q-12.8-0.1-25.6-0.1c-8.4 0-16.8 0.2-25.1-0.1-8.4-0.4-16.7-0.7-25.1-0.8-4.3-0.1-8.6-0.1-12.8-0.1-4.1 0-8.3-0.4-12.3 0.2-1.8 0.3-1.8 3.3 0 3.5 4 0.6 8.2 0.3 12.3 0.3 4.2-0.1 8.5-0.1 12.8-0.1 8.4-0.1 16.7-0.5 25.1-0.8 8.3-0.4 16.7-0.1 25.1-0.1q12.8-0.1 25.6-0.1c1.2 0 1.2-1.8 0-1.8z"/>
			<path id="&lt;Path&gt;" class="s17" d="m576.4 330.4c-2.2-0.5-3.9-0.9-6.1-1.1-2-0.1-4-0.1-6-0.2-4.2-0.1-8.5-0.1-12.8-0.1-8.5-0.1-17-0.1-25.6-0.1h-25.6c-8.3 0-16.7-0.2-25 0.9-1.3 0.2-1.3 2.5 0 2.6 8.3 1.2 16.7 1 25 1q12.8-0.1 25.6-0.1c8.6 0 17.1 0 25.6-0.1 4.3 0 8.6 0 12.8-0.1 2 0 4-0.1 6-0.2 2.1-0.1 4-0.6 6.1-1.1 0.6-0.2 0.6-1.2 0-1.4z"/>
			<path id="&lt;Compound Path&gt;" fill-rule="evenodd" class="s4" d="m462.7 233.1c-0.8 4.2-4.6 7.5-8.8 8.3-4.5 0.8-8.8-1.2-11.2-5.1-2.3-3.9-2.2-8.9 0.8-12.3 2.7-3.2 7.1-4.5 11.1-3.1 0.6-0.6 1.6-0.7 2.4-0.3 4.4 2.3 6.7 7.7 5.7 12.5zm-3.6-2c0.1-2.9-1.5-5.6-4.2-6.9-0.6-0.3-0.9-0.8-1-1.4-3.2-0.4-6.8 1.5-8.4 4.3-1.4 2.6-0.9 5.9 1 8.2 2.1 2.4 5 3 7.8 2 2.7-0.9 4.7-3.4 4.8-6.2z"/>
			<path id="&lt;Compound Path&gt;" fill-rule="evenodd" class="s4" d="m464.9 266.7c-1.9 4.1-6.6 6.6-11 5.8-3.9-0.8-7.1-4.2-8.2-8-1.1-4.1 0.5-8.4 3.8-10.9 3.3-2.4 7.4-2.9 11.1-1.3 0.6 0.3 0.5 0.9 0.1 1.3 0.1 0 0.2 0 0.2 0.1 4.4 2.6 6.2 8.4 4 13zm-5.8-10c-1.2-0.8-0.9-2.3 0-3-3-0.3-6.2 0.9-8.3 3-2.1 2-2.7 4.9-1.7 7.6 1 2.5 3.4 4.8 6.2 4.9 3 0.2 5.9-1.9 6.8-4.8 0.8-2.8-0.5-6.1-3-7.7z"/>
			<path id="&lt;Path&gt;" class="s4" d="m458.4 312.3c-2.3-0.5-3.1 2.6-0.9 3.5 3 1.1 5.5 3.7 6.3 6.9 0.8 3.1-0.6 6.3-3.1 8.2-3.2 2.3-6.9 1.3-10.1-0.2-1.5-0.7-3.1-1.6-4-3.1-0.9-1.5-0.7-3.3-0.1-4.9 0.8-1.9 2.1-3.7 3.7-5 1.7-1.3 4.1-2.5 5.8-0.7 0.7 0.7 1.7-0.3 1.1-1-1.5-1.7-4.1-2.5-6.3-2-2.4 0.6-4.4 2.7-5.9 4.7-1.5 2-2.7 4.5-2.5 7.1 0.1 2.6 1.4 4.8 3.4 6.3 2 1.6 4.5 2.7 7 3.4 2.6 0.8 5.3 0.9 7.8-0.2 4.4-1.8 7.5-6.4 7.3-11.2-0.2-5.4-4.2-10.6-9.5-11.8z"/>
			<g id="&lt;Group&gt;">
				<g id="&lt;Group&gt;">
					<path id="&lt;Compound Path&gt;" class="s16" d="m622.9 184.9c0.2 10.5 0.7 21.1 1.1 31.6 0.1 5.1 0.1 10.3 0.6 15.3 0.4 3.5 1.5 7.3 5 8.7 2.2 0.8 4.7 0.7 7 0.8q4.1 0.2 8.1 0.4 8.1 0.5 16.2 0.8 16.2 0.8 32.4 1.3 32.3 1 64.7 0.9c20.5 0 41 0 61.4-1.3 0.2 0.3 0.6 0.4 1 0.3 0.2-0.1 0.5-0.3 0.7-0.4q0.8 0 1.7-0.1c0.5 0 0.6-0.8 0-0.8q-0.2 0-0.4 0c1.5-1.6 1.9-4 2.1-6.2 0.4-4.7 0.6-9.4 0.9-14.2q1.4-25.7 1.2-51.4-0.1-12.9-0.7-25.8c-0.4-8.4-0.8-17-1.7-25.4q2 0.1 4.1 0.2c1.7 0.1 1.7-2.4 0-2.6-14.4-0.8-28.9-1.6-43.4-2.2q-38.5-1.4-77-1.2-38.7 0.2-77.3 2.1c-0.6 0.1-1.1 0.4-1.3 1q-1 3.6-1.9 7.2c-4.7 19.9-5.1 40.6-4.5 61z"/>
					<path id="&lt;Compound Path&gt;" fill-rule="evenodd" class="s10" d="m626.6 123.4q0.9-3.6 1.9-7.2c0.2-0.6 0.7-1 1.3-1q38.9-1.9 77.9-2.2 38.9-0.2 77.7 1.3c14.6 0.5 29.2 1.3 43.8 2.2 1.6 0.1 1.6 2.7 0 2.6q-2.1-0.1-4.2-0.2c0.9 8.5 1.3 17.1 1.7 25.6q0.6 13 0.7 26 0.3 26-1.2 51.9c-0.2 4.8-0.5 9.5-0.9 14.3-0.2 2.4-0.6 5.8-3.3 6.7q-0.4 0.1-0.8 0.2c-4.5 1.4-10.2 0.9-15 1.1q-8 0.3-16 0.4c-10.6 0.2-21.3 0.2-31.9 0.2q-32.7 0-65.3-1-16.3-0.5-32.7-1.2-8.1-0.4-16.3-0.8-4-0.3-8.1-0.5c-2.3-0.1-4.9 0.1-7.1-0.8-3.6-1.4-4.7-5.3-5-8.7-0.5-5.1-0.5-10.3-0.7-15.5-0.4-10.6-0.8-21.2-1.1-31.9-0.5-20.5-0.1-41.4 4.6-61.5zm-2.1 53.5c0.1 10.3 0.5 20.7 0.8 31q0.3 7.9 0.5 15.9c0.1 2.5 0.1 5.1 0.2 7.6 0.1 1.8 0.3 3.7 1.2 5.3 1 2 2.8 2.6 4.9 2.8 2.6 0.2 5.3 0.3 8 0.4q7.9 0.5 15.8 0.9 15.9 0.8 31.9 1.3 32 1.1 64.1 1.2c21.2 0.1 42.5-0.2 63.8-0.4 2.6-0.1 5.1 0.1 6.6-2.5 1-1.8 0.9-4.1 1.1-6.2q0.5-6.3 0.8-12.5 0.7-12.5 1.1-25 0.6-25-0.2-49.9c-0.3-9.3-1-18.7-1.3-28-24.1-1.4-48.3-2.3-72.5-2.7q-38.9-0.8-77.7 0.2-21.4 0.5-42.7 1.6c-5.5 19.1-6.6 39.2-6.4 59z"/>
				</g>
				<path id="&lt;Path&gt;" class="s17" d="m642.1 147.1c44.1 0 88.2-0.1 132.2 0.1 12.7 0.1 25.2 0.1 37.8 0.9 0.9 0 0.9 1.2 0 1.3-22.1 1.3-44.4 0.9-66.6 0.9q-32.8 0.1-65.6 0.1-18.9 0-37.8 0c-2.1 0-2.1-3.3 0-3.3z"/>
				<path id="&lt;Path&gt;" class="s17" d="m637.5 168.8c11.4-0.6 23.1-0.1 34.6-0.2q17.1 0 34.2 0 34.4 0 68.8 0.1c12.8 0 25.7-0.1 38.6 0.9 0.9 0.1 0.9 1.5 0 1.5-11.6 0.9-23.1 1-34.7 1-11.4 0-22.7 0.1-34.1 0.1q-34.4 0-68.8-0.1c-12.9 0-25.8 0.6-38.6-0.1-2.1-0.1-2.1-3.1 0-3.2z"/>
				<path id="&lt;Path&gt;" class="s17" d="m637.5 190.6c16.4-0.9 32.9-0.4 49.4-0.4 16.5 0 33.1-0.6 49.5 1.2 0.8 0.1 0.8 1.2 0 1.3-16.4 1.8-33 1.1-49.5 1.2-16.5 0-33 0.5-49.4-0.5-1.8-0.1-1.8-2.7 0-2.8z"/>
				<g id="&lt;Group&gt;">
					<path id="&lt;Compound Path&gt;" fill-rule="evenodd" class="s4" d="m785.1 214c1.7-1.5 4.5-1 6.5-1q4.2 0.1 8.3 0.1 2.2 0 4.4 0c1.6 0 3-0.1 4.5 0.6 0.9 0.4 1.1 1.8 0.5 2.6q0.3 3 0.4 6.1c0.1 2.1 0 4.5-2.5 5-1.1 0.3-2.3 0.2-3.4 0.2q-2 0-4 0-3.7 0-7.4 0-1.8 0-3.5 0c-1.1 0-2.3 0-3.3-0.6-2.1-1.4-1.7-4.1-1.8-6.3 0-2.2-0.5-5.1 1.3-6.7zm3.3 9.6q1.7 0.1 3.3 0.1 6 0 12.1 0.1 0.7 0 1.5 0c0.2 0 0.5 0 0.7 0q0 0 0 0c0-0.2 0-0.5 0-0.6q0-0.7 0-1.5 0.1-2.2 0.3-4.4c-1.3 0.1-2.5 0-3.7-0.1q-3 0-6 0-2.9-0.1-5.9-0.1c-0.9 0-1.9 0-2.8 0q0 0 0 0c0 0.2 0 0.6 0 0.7q0 1.4 0 2.9c0 0.9 0.2 2 0 2.8q0 0.1 0 0.1 0.3 0.1 0.5 0z"/>
					<path id="&lt;Compound Path&gt;" fill-rule="evenodd" class="s4" d="m706.2 212.6c1.3-0.5 2.9-0.3 4.3-0.3q2.4 0 4.9 0 5.6-0.1 11.2 0.1 2.6 0.1 5.2 0.2c2 0.1 4 0 5.8 0.5 0.9 0.2 1.3 0.8 1.4 1.4 0.5 0 0.9 0.3 1 0.9 0.2 1.4 0.4 2.8 0.6 4.2 0.1 1.5 0.4 3.1 0.3 4.6-0.3 3-3.5 2.9-5.8 3.1-6.2 0.5-12.5 0.4-18.8-0.1q-2.3-0.2-4.7-0.5c-1.3-0.2-2.9-0.2-4.1-0.8-2.4-1.1-2.5-5.1-3-7.4-0.5-2.1-1.1-5.1 1.7-5.9zm2.4 6.4q0.2 0.9 0.4 1.8c0.1 0.1 0.4 2.1 0.2 1.8 0.3 0.3 1.9 0.3 2.3 0.4q1 0.2 2 0.3 2.5 0.3 5.1 0.5 4.4 0.3 8.9 0.4c3.2 0 6.3-0.4 9.5-0.4 0.9 0 0.6 0 0.6-0.7q0-1.1 0-2.3-0.1-2-0.1-4.1-0.2 0.1-0.4 0.1c-1.7 0.3-3.5 0-5.3-0.1q-2.3-0.1-4.6-0.2-4.9-0.1-9.8-0.2-2.3 0-4.6 0c-1.5 0-3.2 0.3-4.6 0q-0.1 0-0.1 0.1 0 0 0 0.1 0.3 1.3 0.5 2.5zm0.5 3.6q0 0 0 0 0 0 0 0zm0.1 0q-0.1 0-0.1 0 0 0 0.1 0z"/>
					<path id="&lt;Compound Path&gt;" fill-rule="evenodd" class="s4" d="m639.2 214.7c0.9-1.8 3-1.6 4.7-1.6q3.8 0.2 7.6 0.3 14.3 0.6 28.7 1.2c0.1-0.8 1.3-1.3 1.8-0.4 1.6 3.2 1.1 8.1-0.4 11.3-0.7 1.5-1.7 2-3.3 2.1-2.4 0.1-4.8 0-7.2-0.1q-7-0.1-14-0.2c-4.8-0.1-9.9-0.5-14.7-0.1-0.6 0-1.3-0.4-1.6-0.9-0.8-1.9-1.3-4-1.6-6.1-0.3-1.7-0.8-3.9 0-5.5zm15.1 9.2q5.8 0.1 11.6 0.2c3.8 0.1 7.7 0.5 11.6 0.3 1.4 0 1.4-0.2 1.8-1.5q0.3-1.1 0.5-2.1 0.2-1 0.2-2-9.5-0.4-18.9-0.8-4.8-0.2-9.6-0.4-2.4-0.1-4.8-0.2c-1.1-0.1-2.7-0.4-3.9-0.3-0.1 1.2 0.4 3.2 0.5 3.8q0.3 1.4 0.6 2.8c3.4 0.3 7 0.1 10.4 0.2z"/>
				</g>
			</g>
			<g id="&lt;Group&gt;">
				<g id="&lt;Group&gt;">
					<path id="&lt;Compound Path&gt;" class="s16" d="m296.6 340.6q-0.8-3.5-1.8-6.9c-0.2-0.6-0.7-0.9-1.3-1q-37.3-1.8-74.7-2.1-37.3-0.2-74.6 1.2c-14 0.5-28 1.3-42 2.2-1.6 0.1-1.6 2.6 0 2.5q2-0.1 4-0.3c-0.8 8.2-1.2 16.5-1.6 24.7q-0.6 12.4-0.7 24.9-0.2 24.9 1.2 49.8c0.2 4.5 0.5 9.1 0.8 13.7 0.2 2.1 0.6 4.4 2.1 5.9q-0.2 0-0.4 0c-0.6 0-0.6 0.8 0 0.9q0.8 0 1.6 0.1c0.2 0.1 0.5 0.2 0.7 0.3 0.4 0.1 0.7 0 0.9-0.2 19.8 1.2 39.7 1.2 59.4 1.2q31.4 0.1 62.7-0.9 15.7-0.5 31.3-1.2 7.8-0.4 15.7-0.8 3.9-0.2 7.8-0.4c2.2-0.1 4.7 0 6.8-0.8 3.4-1.3 4.5-5.1 4.8-8.4 0.5-4.9 0.5-9.9 0.7-14.8 0.3-10.2 0.8-20.4 1-30.6 0.5-19.7 0.1-39.7-4.4-59z"/>
					<path id="&lt;Compound Path&gt;" fill-rule="evenodd" class="s10" d="m301.9 399.6c-0.3 10.3-0.7 20.6-1.1 30.9-0.2 5-0.2 10-0.7 15-0.3 3.3-1.4 7.1-4.8 8.4-2.2 0.8-4.7 0.7-6.9 0.8q-3.9 0.2-7.9 0.4-7.9 0.5-15.8 0.8-15.7 0.7-31.5 1.2-31.6 1-63.2 0.9c-10.3 0-20.6 0-30.9-0.1q-7.7-0.2-15.5-0.4c-4.6-0.2-10.1 0.3-14.5-1.1q-0.4-0.1-0.8-0.2c-2.6-0.9-3-4.1-3.1-6.5-0.4-4.6-0.7-9.2-1-13.8q-1.4-25.1-1.1-50.2 0.1-12.6 0.7-25.1c0.3-8.3 0.7-16.6 1.6-24.8q-2 0.1-4 0.2c-1.6 0.1-1.6-2.4 0-2.5 14.1-0.9 28.2-1.7 42.3-2.2q37.6-1.4 75.2-1.2 37.7 0.2 75.4 2.1c0.6 0 1.1 0.4 1.2 1q1.1 3.4 1.9 7c4.6 19.4 5 39.6 4.5 59.4zm-8.6-64.8q-20.7-1-41.4-1.5-37.5-1-75.1-0.3c-23.4 0.5-46.8 1.3-70.2 2.7-0.3 9-0.9 18-1.2 27q-0.9 24.2-0.2 48.4 0.3 12 1 24.1 0.3 6.1 0.8 12.2c0.1 1.9 0.1 4.2 1.1 5.9 1.4 2.6 3.8 2.4 6.3 2.4 20.6 0.2 41.2 0.6 61.8 0.5q31-0.2 62-1.2 15.4-0.6 30.9-1.3 7.6-0.4 15.3-0.8c2.5-0.2 5.1-0.3 7.7-0.5 2-0.1 3.8-0.8 4.7-2.6 0.8-1.6 1.1-3.4 1.2-5.2 0.1-2.4 0.1-4.9 0.2-7.3q0.2-7.7 0.4-15.4c0.3-10 0.7-20 0.8-30 0.2-19.2-0.8-38.6-6.1-57.1z"/>
				</g>
				<g id="&lt;Group&gt;">
					<g id="&lt;Group&gt;">
						<g id="&lt;Group&gt;">
							<path id="&lt;Path&gt;" class="s18" d="m266.9 353.7l0.9 83.8-18.5 0.1-1-83.9z"/>
							<path id="&lt;Path&gt;" class="s18" d="m229.6 370.5l0.7 67.2-18.5 0.1-0.7-67.3z"/>
							<path id="&lt;Path&gt;" class="s18" d="m173.8 385.1l0.6 52.9h18.5l-0.6-52.9z"/>
							<path id="&lt;Path&gt;" class="s18" d="m154.2 407.3l0.4 30.8-18.6 0.1-0.3-30.8z"/>
						</g>
					</g>
					<path id="&lt;Path&gt;" class="s10" d="m278.9 437.1c-10.5-0.8-21.1-0.4-31.6-0.4q-15.6-0.1-31.2-0.1-31.3 0-62.7 0-17.8 0.1-35.5 0.1c-1.6 0-1.6 2.5 0 2.5 41.9 0 83.7 0.1 125.6 0 11.7 0 23.7 0.5 35.4-0.4 1.1-0.1 1.1-1.7 0-1.7z"/>
				</g>
			</g>
			<path id="&lt;Path&gt;" class="s19" d="m373.4 273.2c-1.1 0.8-1.9 1.9-2.7 2.9-0.6 0.6-0.6 1.4-0.3 2-9 15.5-17.8 31.2-26.5 46.8-6.1-6-11.8-12.5-17.1-19.2-1-1.2-2.8 0.3-2.1 1.5 4.9 8.5 11.1 16.2 18.1 23.1 1 1 2.8 0.8 3.6-0.5 10.4-17.8 20.7-35.7 30.7-53.7 1.4-2.5-1.7-4.6-3.7-2.9z"/>
			<path id="&lt;Path&gt;" class="s19" d="m455.3 345.8c-1 0.9-1.8 1.9-2.7 2.9-0.5 0.7-0.6 1.5-0.3 2.1-9 15.5-17.8 31.1-26.5 46.8-6.1-6.1-11.8-12.6-17.1-19.3-1-1.2-2.8 0.3-2.1 1.6 5 8.5 11.2 16.1 18.1 23 1 1.1 2.8 0.9 3.6-0.4 10.4-17.8 20.8-35.7 30.8-53.8 1.3-2.5-1.8-4.6-3.8-2.9z"/>
			<g id="&lt;Group&gt;">
				<path id="&lt;Path&gt;" class="s8" d="m685.3 338c35.5 9.5 72.8 19.8 90.5 35.5 14.2 12.6 13.8 27.4 4.4 40.8-9.4 13.3-27.2 25.5-46.9 36.8-7.4 4.3-15.6 7-24.2 6.4-6-0.5-11.5-4.1-15.5-8.7-3.9-4.5-6.5-10.1-8.7-15.8-6.7-17-10.3-35.3-9.5-53.6 0.4-10.1 2.1-20.2 3.8-30.1 0.8-4.4 2.4-9.6 6.7-10.4-0.6 0.2 0-1-0.6-0.9z"/>
				<path id="&lt;Path&gt;" class="s8" d="m708.1 774.2c0.4 5.9 7.2 69.4 7.2 69.4l35.5-3.4-2.1-68.7z"/>
				<path id="&lt;Path&gt;" class="s10" d="m754.1 860.4c2.1-1.9 1.7-5.4 0.7-9.6-0.4-2-1-3.9-1.5-5.8-0.7-3 0.2-8.7-1.2-11.1-1.1-2-3-1.8-5.2-1.9-4.1-0.3-8.4-0.4-12.5 0-3.6 0.4-7.4 0.4-11-0.1-2.5-0.4-7.1-2.9-9.3-2.2-1.8 0.6-4.3 4.7-6.2 5.8-2.8 1.8-5.9 3-9 4.2-6 2.5-11.9 5.3-17.2 9-3.5 2.4-11.2 7.3-12.6 11.4-0.4 1.2 0 2.9 1.2 3.3 0.5 0.2 1 0.2 1.4 0.1q38.7-0.8 77.4-1.7c2.4 0 4-0.6 5-1.4z"/>
				<path id="&lt;Path&gt;" class="s9" d="m660.6 580.9c-1.8-19.2-3.5-38.4-3.2-57.6 0.2-17.8-2.3-36.5-0.4-54.1 1.2-10.8 7.8-16.9 18.9-17.5 13.4-0.8 26.6 6.1 35.3 16.3 14.8 17.3 15.6 38.3 17.7 59.5 2.2 23.2 8 45.8 10.8 68.8q11.6 96.1 19.2 192.6c0.2 2.9 0.4 6.2-1.5 8.5-1.6 2-4.3 2.8-6.7 3.3-17.6 4-35.9 4.4-53.7 1.4-3.9-0.6-8-1.6-10.6-4.6-2.3-2.8-2.8-6.6-3.1-10.2-7.1-67.8-22.7-138.3-22.7-206.4z"/>
				<path id="&lt;Path&gt;" class="s8" d="m572.5 782.5c-0.3 5.9-1.4 63.6-1.4 63.6l35.9-2.3 9.8-67.2z"/>
				<path id="&lt;Path&gt;" class="s8" d="m681.8 336.8h-31.9v-40.2h31.9z"/>
				<path id="&lt;Path&gt;" class="s9" d="m673.4 437.9c-23.9-13.8-45.1 13.2-52.8 32.8-40.8 105-56.9 217.6-71.8 329.3-0.4 3.2 1.7 6.2 4.9 6.8q0.1 0 0.1 0 2.9 0.5 5.9 0.9c10.6-1.1 26.5-0.3 40.5 0.8 10.6-0.7 21.2-1.8 31.8-2.6 4.6-13.1 3.8-33.9 5.8-46.2 3.1-19.7 6.2-39.3 9.4-58.9 6.3-37.9 13.2-75.7 22.2-113q4.2-17.6 9.1-35c0.2-0.5 6.3-22.1 8.3-34.9q0-0.1 0-0.1c0-2.3-0.2-4.9 1.6-6.3 0.3-0.3 0.7-0.6 1.1-0.7 1.5-3.4 3.3-6.6 5.1-9.9 9.1-17.2-4.7-53.4-21.2-63z"/>
				<g id="&lt;Clip Group&gt;" clip-path="url(#cp1)">
					<path id="&lt;Path&gt;" class="s20" d="m735.9 492.2c-1.4-6.8-10.4-6.5-18.8-7.5q-15-1.7-30-2.7c-20.5-1.3-41.5-2.4-61.8 0.8-1.9 0.3-3.3 1.9-3.8 3.7q-4.2-0.1-8.5-0.1c-3.5-0.1-4.4 5.4-0.9 6.2 38.1 8.2 77.4 4 115.5 11.6 1.5 0.3 3.1 0.7 4.5 0 1.9-0.8 2.7-2.9 3.2-4.9 0.9-2.9 1-5.3 0.6-7.1z"/>
				</g>
				<path id="&lt;Path&gt;" class="s5" d="m731.1 461.3q-2.7-30.4-4.4-60.9c-0.4-7.6 0-15.6-1.2-23-0.8-5.8-3.8-10.9-6.9-15.9-3.3-5.6-6.5-11.2-9.4-16.9q-2.2-4.4-4.3-8.9c-1.8-3.9-2.1-6.4-6.7-7.5-8.7-2.2-17.9-4.8-27-4.4-9.3 0.4-18.6-0.2-27.8 0.4-15 0.9-20 10.3-26.1 23-2.5 5.3-4.4 11.1-5.6 16.9-3.4 16.6-2.1 33.8-2.2 50.8 0 25.1-2.9 50.2-8.6 74.6 44.1 4.5 88.8-1.5 133.1 1.6q-1.6-14.9-2.9-29.8z"/>
				<path id="&lt;Path&gt;" class="s8" d="m636.5 359.6c-2.7-7.5-8.9-15.2-16.8-14.2-3.3 0.4-6.3 2.3-9 4.3-19.8 14.4-37.6 32.2-49.9 53.4 0.4-0.7-5.4-8.3-6.1-9.3q-3.1-4.8-6.3-9.6c-6.2-9.4-11.7-19.4-18.5-28.4-9.8-12.8-19.2-25.4-26.9-39.5-0.8-1.4-1.8-3-3.4-2.9-1.3 0.1-2.3 1.5-2.4 2.8 0 1.4 0.6 2.7 1.1 3.9q2.6 5.3 5.1 10.5c0.1 0.4 0.3 0.8 0.2 1.1-0.1 0.4-0.4 0.6-0.8 0.8-2 1.3-4.4 2.2-6.4 3.6-2.2 1.5-3.8 4.6-5 6.9-3.6 6.5 0.7 11.6 4.5 16.3 4.5 5.6 7.2 12.3 10 18.8 6.5 15 13.8 29.7 21.9 43.9 3.6 6.2 6.7 12.1 11.9 16.9 5.5 5.1 10.7 10.3 16.3 15.2 3 2.6 6.3 5.1 10.2 5.8 5.2 0.9 10.3-1.9 14.8-4.8 14.3-9.1 27.3-20.1 38.7-32.7 14.8-16.3 24.2-42 16.8-62.8z"/>
				<path id="&lt;Path&gt;" class="s5" d="m570.7 378.3q18.4-18.4 36.8-36.8c3.8-3.7 7.6-7.5 12.1-10.3 14.9-9.2 35.3-10.1 44.4 6.7 9.9 18.3-1.5 41.3-12.3 56.9-10.1 14.4-23.1 26.4-36.1 38.2 1.5 0.2 3.1-0.6 3.8-1.9"/>
				<path id="&lt;Path&gt;" class="s8" d="m643.4 284.5c-1.4 6.9-2.2 13.8-1.2 20.6 0.6 4.4 3.9 7.1 7.8 8.9 5.4 2.4 11.9 2 17.1-0.8 4-2.1 6.4-5.7 7.3-10.2 0.6-2.8 0.6-5.7 1.2-8.6 1-4.3 3.2-8.4 2.9-12.8-0.3-5.3-4.2-9.9-8.9-12.2-4.7-2.4-10.1-2.9-15.3-2.8-2.3 0-4.9 0.2-6.3 2.1-0.5 0.7-0.8 1.6-1 2.5-1.3 4.4-2.6 8.8-3.6 13.3z"/>
				<path id="&lt;Path&gt;" class="s10" d="m663.1 295.9c-0.2 1-0.5 2.1-0.2 3.2 0.7 1.8 2.9 2.4 4.4 3.6 2.1 1.7 3.3 4.1 5.5 5.7 2.6 2 5.3 3.3 8.5 4 0.8 0.2 1.8 0.3 2.6 0 1.5-0.6 2.3-2.2 2.8-3.7 1.1-2.9 2.4-6 3-9.1 0.5-2.7 1.8-4 3.1-6.4 1.7-3.2 1.8-7 1-10.5-1-4.1-3.3-8.2-5.9-11.5-2.3-3-4.1-6.3-7.7-7.9-3.1-1.5-6.7-1.8-10.1-2.1-5.5-0.6-11.1-1.2-16.4 0.3-5.3 1.4-10.3 5.3-11.2 10.7-0.1 0.6-0.2 1.2 0 1.6 0.4 0.7 1.1 1.1 1.8 1.3 3.4 1.5 7.2 2.9 10.6 1.5 1.6-0.6 5.7-2.9 5 0.4-0.7 2.6-3.9 4.5-3 7.5 0.5 1.9 2.5 2.8 4 4.2 1.7 1.6 2.6 4.1 2.3 6.5q-0.1 0.3-0.1 0.7z"/>
				<path id="&lt;Path&gt;" class="s8" d="m663.3 286.8c-8.6 0-8.6 12.1 0 12.1 8.7 0 8.7-12.1 0-12.1z"/>
				<path id="&lt;Path&gt;" class="s10" d="m605.2 863.5c3.6 0 6.3-3.3 5.6-6.8-1-4.8-1.5-9.6-1-14.4 0.1-1.2 0.3-2.4 0.1-3.6-0.2-1.1-0.9-2.3-2-2.7-0.8-0.2-1.7-0.1-2.5 0-5 0.6-9.7-0.7-14.6-0.5-2.8 0.1-5.5 0-8.3-0.4-2.9-0.5-6.6-2.7-9.4-2.8-4.4 0-7.3 6.8-11.9 8.6-7.4 2.8-15.2 4.4-22.4 7.7-6.3 2.8-13.6 8-15.8 14.9z"/>
				<path id="&lt;Path&gt;" class="s5" d="m686.2 369q5.9 8.9 11.9 17.7c2.8 4.2 5.4 9.5 10.7 10.5 4.6 1 7.6 9.9 10.8 12.8 7.7 6.7 12.1 0.2 18.7-5.6 13.3-11.8 25.6-24.7 36.7-38.6-29.8-22.3-64.8-38.8-100.3-41.9-33-2.9 5.4 36.1 11.5 45.1z"/>
				<path id="&lt;Path&gt;" class="s8" d="m517.6 332.5q-0.6-0.2-1.1-0.4c-2.8-1-6.5-1.2-6.8 2.8-0.1 0.9 0.1 1.9 0.7 2.7 0.4 0.5 1 0.9 1.6 1.3 0.8 0.6 1.6 1.4 2.3 2.2 0.4 0.5 0.8 1 1.1 1.6 0.9 2.1 2.7 7.4 5.9 4.3 0.8-0.9 1.2-2.1 1.5-3.2 0.7-2.7 1.1-5.6-0.4-7.9-1.1-1.7-2.9-2.6-4.8-3.4z"/>
				<path id="&lt;Path&gt;" class="s4" d="m548.9 850.9c-0.9-1.3-1.9-2.6-2.8-4.1-0.8-1.5-1.5-3.2-2.2-4.9-0.5-1.3-2.3-0.8-2.1 0.6 0.5 3.2 2 6.4 3.9 9 0.6 0.8 1.3 2 2.3 2 0.6 0 1.2-0.4 1.3-1 0.2-0.6-0.1-1.2-0.4-1.6z"/>
				<path id="&lt;Path&gt;" class="s4" d="m558.4 846.8c-0.1-0.4-0.3-0.7-0.5-1q-1.1-1.6-2.5-2.9c-1.1-1-2.2-1.8-3.4-2.5-0.5-0.2-1-0.1-1.3 0.3-0.3 0.4-0.2 0.9 0.1 1.2 0.8 0.9 1.7 1.7 2.4 2.6 0.4 0.4 0.8 0.9 1.2 1.4-0.3-0.3 0 0 0 0.1q0.2 0.2 0.3 0.4 0.3 0.3 0.5 0.7c0.6 0.7 1.2 1.8 2.3 1.4 0.8-0.2 1.1-1 0.9-1.7z"/>
				<path id="&lt;Path&gt;" class="s4" d="m569.3 841.5c-1.1-1-2.4-1.7-3.7-2.4-1.2-0.7-2.5-1.3-3.7-2-0.5-0.2-1.2-0.1-1.5 0.4-0.3 0.5-0.1 1.1 0.4 1.5 1.2 0.8 2.3 1.6 3.5 2.3 1.3 0.8 2.5 1.7 3.9 2.1 1.1 0.3 1.9-1.1 1.1-1.9z"/>
				<path id="&lt;Path&gt;" class="s4" d="m703.4 842q0-0.1 0-0.1 0 0 0-0.1-0.1-0.3-0.3-0.5c-0.1-0.3-0.3-0.5-0.5-0.6q-0.4-0.4-0.9-0.8-0.8-0.8-1.7-1.6c-1.1-1-2.1-2.2-3.1-3.4-0.3-0.3-0.9-0.3-1.3 0-0.3 0.3-0.4 0.8-0.2 1.2 0.8 1.4 1.8 2.7 2.8 4q0.8 0.9 1.6 1.7 0.4 0.4 0.8 0.8 0.3 0.2 0.5 0.4c0.3 0.2 0.5 0.3 0.8 0.3q0.1 0 0.1 0c0.4 0.1 0.8 0 1.1-0.3 0.3-0.2 0.4-0.7 0.3-1z"/>
				<g id="&lt;Group&gt;">
					<path id="&lt;Path&gt;" class="s4" d="m713.8 838.7c-0.2-0.6-0.6-1-1.1-1.4q-0.6-0.6-1.3-1.2-1.4-1.3-2.7-2.5c-1-0.8-2-1.5-2.9-2.3-0.8-0.7-1.8 0.3-1.1 1 1.4 1.6 2.7 3.1 4.1 4.6q1 1.1 2.1 2.2 0.1 0.1 0.2 0.2 0.1 0.1 0.1 0.1 0 0 0 0 0 0 0 0-0.1-0.1-0.1-0.1 0.1 0 0.1 0.1c0-0.1 0-0.1 0 0q0 0 0 0 0 0 0 0 0 0 0 0 0 0 0 0 0 0 0 0 0 0.1 0 0.1 0 0 0 0c0 0 0 0 0 0.1 0 0.1 0 0.3 0.1 0.4 0 0.2 0.1 0.4 0.2 0.6 0.6 0.5 1.4 0.5 1.9-0.1 0.5-0.5 0.5-1.2 0.4-1.8z"/>
					<path id="&lt;Path&gt;" class="s4" d="m698.1 846.3c-0.1-0.6-0.5-1-1-1.4q-0.6-0.7-1.3-1.3-1.4-1.2-2.8-2.4c-0.9-0.8-1.9-1.6-2.8-2.4-0.8-0.6-1.8 0.4-1.1 1.1 1.3 1.5 2.7 3.1 4.1 4.5q1 1.1 2.1 2.2 0.1 0.2 0.2 0.3 0.1 0.1 0.1 0.1 0 0 0 0 0 0 0 0-0.1-0.1-0.1-0.1 0.1 0 0.1 0c0 0 0 0 0 0.1q0 0 0 0 0 0 0 0 0 0 0 0 0 0 0 0 0 0 0 0 0 0 0 0.1 0 0 0 0c0-0.1 0 0 0 0.1 0 0.1 0 0.2 0 0.4 0.1 0.2 0.2 0.4 0.3 0.5 0.6 0.5 1.4 0.5 1.9 0 0.5-0.5 0.5-1.2 0.3-1.8z"/>
					<path id="&lt;Path&gt;" class="s4" d="m711.2 839.4q0 0 0 0c0 0.1 0 0.1 0 0q0 0 0 0 0 0 0 0z"/>
					<path id="&lt;Path&gt;" class="s4" d="m711.2 839.4q0 0 0 0 0 0 0 0 0 0 0 0z"/>
				</g>
				<path id="&lt;Path&gt;" class="s10" d="m687.1 504.6c-0.1-1.3-2-1.4-2.1 0 0 3.7-0.3 7.4-1.1 11.1-0.7 3.6-1.7 7-2.8 10.4-2.3 7.2-4.9 14.2-6.7 21.6-1.8 7.7-3 15.5-4.4 23.4q-2 12-4 24c-1.4 9-2.9 18-4.3 27-0.1 0.8 1 1.1 1.2 0.4 3-16.2 5.8-32.3 8.6-48.5 1.3-7.8 2.6-15.7 4.3-23.4 1.7-7.5 4.2-14.6 6.6-21.8 2.7-7.7 5.4-16 4.7-24.2z"/>
				<path id="&lt;Path&gt;" class="s10" d="m650.2 385.4c-2.9 3.2-5.1 7.1-7.6 10.5q-3.9 5.6-8.1 11-4.1 5.2-8.4 10.2c-2.9 3.4-6 6.7-8.7 10.2-0.4 0.6 0.2 1.2 0.7 0.8 3.4-3 6.5-6.5 9.4-9.9q4.4-4.9 8.6-10.1 4-5.1 7.8-10.4 2-2.7 4-5.5c1.3-1.9 2.6-3.8 3.5-5.9 0.4-0.7-0.5-1.6-1.2-0.9z"/>
				<path id="&lt;Path&gt;" class="s10" d="m726.7 390.8q-1.2-6.3-2.4-12.5c-0.8-4.3-1.5-8.7-2.8-12.9-0.1-0.5-1-0.4-1 0.2 0.4 4.1 1.4 8.1 2.1 12.2q1.2 6.1 2.5 12.2c1.6 8 3.2 16.3 1.5 24.4-0.1 0.6 0.7 0.9 0.9 0.3 2.1-7.9 0.7-16.1-0.8-23.9z"/>
				<path id="&lt;Path&gt;" class="s10" d="m648.6 299.8c-1.1 0.4-2.3 0.7-3.4 0.6-1.2-0.1-2.2-0.5-3.3-0.9-0.3-0.1-0.5 0.3-0.3 0.5 0.9 0.9 2.3 1.2 3.5 1.3 1.3 0.1 2.6-0.1 3.8-0.6 0.5-0.2 0.1-1-0.3-0.9z"/>
				<path id="&lt;Path&gt;" class="s10" d="m666.5 290.8q-0.8-0.5-1.8-0.5-1 0-1.9 0.4c-0.6 0.2-1.1 0.6-1.5 1.1q-0.4 0.3-0.7 0.8c-0.2 0.3-0.3 0.6-0.3 1 0 0.5 0.7 0.6 1 0.2q0.2-0.3 0.4-0.6c0.1-0.3 0.2-0.4 0.4-0.6q0.5-0.6 1.2-0.9c0.9-0.5 2-0.6 3-0.4 0.3 0.1 0.5-0.3 0.2-0.5z"/>
				<path id="&lt;Path&gt;" class="s10" d="m617.2 527.7c-0.6-0.7-1.8-0.9-2.7-1.4q-1.3-0.7-2.5-1.6c-1.6-1.4-2.9-2.9-3.9-4.8-2.2-4.4-1.8-9.2-2.4-13.9-0.1-0.7-1.2-1-1.3-0.2-0.8 5-0.6 10.9 1.8 15.5 1 2 2.5 3.9 4.2 5.4q1.3 1.1 2.8 1.9c1 0.5 2.3 1.3 3.5 1 0.9-0.2 1-1.2 0.5-1.9z"/>
				<path id="&lt;Path&gt;" class="s14" d="m782.1 397.2c-0.2-0.7-1.4-0.9-1.6 0-0.1 0.8-0.1 1.5-0.2 2.3q-0.3 1.1-0.7 2c-0.7 1.3-1.6 2.5-2.7 3.5-0.8 0.7 0.2 1.9 1.1 1.5 1.6-0.9 2.8-2.3 3.5-4q0.5-1.2 0.7-2.5c0.1-0.9 0.2-1.9-0.1-2.8z"/>
				<path id="&lt;Path&gt;" class="s14" d="m571.1 447.9c-1.5-0.1-2.9-0.1-4.3-0.6-1.4-0.4-2.7-1.1-3.7-2-0.8-0.7-1.9 0.4-1.2 1.1 2.4 2.3 6.1 4 9.4 3 0.9-0.2 0.7-1.5-0.2-1.5z"/>
				<path id="&lt;Path&gt;" class="s14" d="m566.8 409.8c-0.3-0.7-0.7-1.4-1.2-2.1q-0.7-1-1.4-2.1-1.5-2-3-4c-0.4-0.5-1.4 0-1 0.6q1.3 2.2 2.7 4.3 0.6 1 1.3 2c0.5 0.8 1 1.4 1.6 2.1 0.6 0.5 1.3-0.2 1-0.8z"/>
				<path id="&lt;Path&gt;" class="s14" d="m658.8 311.8c-1.4 0.4-2.8 0.9-4.3 1.2-1.5 0.3-2.9 0.5-4.4 0.6-0.8 0.1-0.7 1.1 0 1.2 3.1 0.3 6.5-0.3 9.3-1.7 0.8-0.3 0.2-1.6-0.6-1.3z"/>
			</g>
			<g id="&lt;Group&gt;">
				<g id="&lt;Group&gt;">
					<path id="&lt;Path&gt;" class="s21" d="m878.4 294.7l-29.4 40"/>
					<path id="&lt;Path&gt;" class="s21" d="m852.8 343.4l11.2-15.2"/>
				</g>
				<path id="&lt;Path&gt;" class="s21" d="m128.8 292.7l-3.8-11.1 11.1-0.6-2.8-12.1 11.8-0.1-3.2-11.9 11.9-0.8-2.8-12"/>
				<path id="&lt;Path&gt;" class="s21" d="m595.1 151.8c-2.5 2.9-7 3.3-10 0.7-2.9-2.6-3.3-7.1-0.7-10 2.6-3 7-3.3 10-0.7 3 2.5 3.3 7 0.7 10z"/>
				<path id="&lt;Path&gt;" class="s21" d="m475.1 610.2c5.8 0 10.5 4.7 10.5 10.5 0 5.8-4.7 10.5-10.5 10.5"/>
				<path id="&lt;Path&gt;" class="s21" d="m848.2 632.8l-4.1-12.8 13 0.9-3.4-13.7 14.1-0.7-4.5-12.1"/>
				<path id="&lt;Path&gt;" class="s21" d="m403.8 660.3q1.1-1.3 2.5-2.5c4.4-3.9 9.6-7.1 13.6-11.6 3.4-3.7 5.8-8.2 7-13.1 1.2-4.6 1.6-10 5.4-13 2.7-2.1 6.7-2.3 9.8-0.8 8.5 4.1 8.3 17 5.2 24.5-1.7 4.1-4.5 7.5-6.6 11.4-6.2 11.9-8.5 31-25.5 32.8-7.3 0.8-13.6-2.7-16.1-9.7-2.4-7.1 0-13 4.7-18z"/>
				<path id="&lt;Path&gt;" class="s21" d="m763.9 766.2c-0.5-8.7 4.5-17 4.8-25.7 0.1-4.7-1.1-9.3-1.9-13.9-0.8-4.6-1-9.5 1-13.7 2-4.3 6.8-7.5 11.3-6.3 4.8 1.3 7.2 6.8 8.1 11.7 1 5.5 0.9 11.2-0.2 16.6-1.4 7-4.4 13.7-4.1 20.8 0.3 5.1 2.3 10.1 2.2 15.2-0.2 5.8-5.2 13.2-11.6 11.2-5.8-1.8-9.3-10.5-9.6-15.9z"/>
				<g id="&lt;Group&gt;">
					<path id="&lt;Path&gt;" class="s21" d="m150.1 580.8q-12.3 17.3-24.5 34.6"/>
					<path id="&lt;Path&gt;" class="s21" d="m137.1 611.2q7.7-10.2 14.8-20.9"/>
				</g>
			</g>
		</g>
	</g>
</svg>