<svg width="62" height="62" viewBox="0 0 62 62" fill="none" xmlns="http://www.w3.org/2000/svg">
<path fill-rule="evenodd" clip-rule="evenodd" d="M42.8129 39.0774L44.7226 35.8516H53.8323L56.6452 31L51.0193 21.3225H43.0968L40.3613 16.5225H37.2903V13.2709H42.2968L45.0323 18.0967H49.1355L43.4839 8.41931H32.4645V21.3225H36.929L38.8129 24.5483H32.4645V31H38.2968L41.0064 26.1741H48.2581L50.1161 29.4H42.8903L40.1806 34.2258H32.4645V45.529H41.2387L39.3806 48.7548H32.4645V53.5806H43.4839L51.9484 39.0774H46.5548L44.671 42.3032H37.2903V39.0774H42.8129Z" fill="white"/>
<path fill-rule="evenodd" clip-rule="evenodd" d="M18.9935 39.0774L17.0839 35.8516H7.97419L5.16129 31L10.7871 21.3225H18.7097L21.4452 16.5225H24.5161V13.2709H19.5097L16.7742 18.0967H12.671L18.3226 8.41931H29.3677V21.3225H24.8774L22.9935 24.5483H29.3677V31H23.5097L20.8 26.1741H13.5484L11.6903 29.4H18.9161L21.6258 34.2258H29.3677V45.529H20.5677L22.4258 48.7548H29.3677V53.5806H18.3226L9.85806 39.0774H15.2516L17.1355 42.3032H24.5161V39.0774H18.9935Z" fill="white" fill-opacity="0.52"/>
</svg>
