<svg width="1363" height="163" viewBox="0 0 1363 163" fill="none" xmlns="http://www.w3.org/2000/svg">
<path d="M0 15C0 6.71573 6.71573 0 15 0H37V163H15C6.71573 163 0 156.284 0 148V15Z" fill="#424242"/>
<rect width="1097" height="163" transform="translate(37)" fill="#F0F0F0"/>
<path d="M101.906 53.9219L94.3945 51.2383V48.0859L104.602 52.375V54.6367L101.906 53.9219ZM94.3945 56.1719L101.918 53.4297L104.602 52.7852V55.0352L94.3945 59.3242V56.1719ZM118.137 61H114.422L114.445 58.2578H118.137C119.059 58.2578 119.836 58.0508 120.469 57.6367C121.102 57.2148 121.578 56.6016 121.898 55.7969C122.227 54.9922 122.391 54.0195 122.391 52.8789V52.0469C122.391 51.1719 122.297 50.4023 122.109 49.7383C121.93 49.0742 121.66 48.5156 121.301 48.0625C120.941 47.6094 120.5 47.2695 119.977 47.043C119.453 46.8086 118.852 46.6914 118.172 46.6914H114.352V43.9375H118.172C119.312 43.9375 120.355 44.1328 121.301 44.5234C122.254 44.9062 123.078 45.457 123.773 46.1758C124.469 46.8945 125.004 47.7539 125.379 48.7539C125.762 49.7461 125.953 50.8516 125.953 52.0703V52.8789C125.953 54.0898 125.762 55.1953 125.379 56.1953C125.004 57.1953 124.469 58.0547 123.773 58.7734C123.086 59.4844 122.262 60.0352 121.301 60.4258C120.348 60.8086 119.293 61 118.137 61ZM116.414 43.9375V61H112.898V43.9375H116.414ZM134.133 61.2344C133.148 61.2344 132.266 61.0781 131.484 60.7656C130.703 60.4453 130.039 60.0039 129.492 59.4414C128.953 58.8789 128.539 58.2266 128.25 57.4844C127.961 56.7344 127.816 55.9375 127.816 55.0938V54.625C127.816 53.6641 127.953 52.7852 128.227 51.9883C128.5 51.1914 128.891 50.5 129.398 49.9141C129.914 49.3281 130.539 48.8789 131.273 48.5664C132.008 48.2461 132.836 48.0859 133.758 48.0859C134.656 48.0859 135.453 48.2344 136.148 48.5312C136.844 48.8281 137.426 49.25 137.895 49.7969C138.371 50.3438 138.73 51 138.973 51.7656C139.215 52.5234 139.336 53.3672 139.336 54.2969V55.7031H129.258V53.4531H136.02V53.1953C136.02 52.7266 135.934 52.3086 135.762 51.9414C135.598 51.5664 135.348 51.2695 135.012 51.0508C134.676 50.832 134.246 50.7227 133.723 50.7227C133.277 50.7227 132.895 50.8203 132.574 51.0156C132.254 51.2109 131.992 51.4844 131.789 51.8359C131.594 52.1875 131.445 52.6016 131.344 53.0781C131.25 53.5469 131.203 54.0625 131.203 54.625V55.0938C131.203 55.6016 131.273 56.0703 131.414 56.5C131.562 56.9297 131.77 57.3008 132.035 57.6133C132.309 57.9258 132.637 58.168 133.02 58.3398C133.41 58.5117 133.852 58.5977 134.344 58.5977C134.953 58.5977 135.52 58.4805 136.043 58.2461C136.574 58.0039 137.031 57.6406 137.414 57.1562L139.055 58.9375C138.789 59.3203 138.426 59.6875 137.965 60.0391C137.512 60.3906 136.965 60.6797 136.324 60.9062C135.684 61.125 134.953 61.2344 134.133 61.2344ZM145.406 58.5391L148.219 48.3203H151.746L147.469 61H145.336L145.406 58.5391ZM143.473 48.3203L146.297 58.5508L146.355 61H144.211L139.934 48.3203H143.473ZM160.113 54.918H155.766V52.1758H160.113C160.785 52.1758 161.332 52.0664 161.754 51.8477C162.176 51.6211 162.484 51.3086 162.68 50.9102C162.875 50.5117 162.973 50.0625 162.973 49.5625C162.973 49.0547 162.875 48.582 162.68 48.1445C162.484 47.707 162.176 47.3555 161.754 47.0898C161.332 46.8242 160.785 46.6914 160.113 46.6914H156.984V61H153.469V43.9375H160.113C161.449 43.9375 162.594 44.1797 163.547 44.6641C164.508 45.1406 165.242 45.8008 165.75 46.6445C166.258 47.4883 166.512 48.4531 166.512 49.5391C166.512 50.6406 166.258 51.5938 165.75 52.3984C165.242 53.2031 164.508 53.8242 163.547 54.2617C162.594 54.6992 161.449 54.918 160.113 54.918ZM172.289 43V61H168.902V43H172.289ZM181.922 58.1406V52.4922C181.922 52.0859 181.855 51.7383 181.723 51.4492C181.59 51.1523 181.383 50.9219 181.102 50.7578C180.828 50.5938 180.473 50.5117 180.035 50.5117C179.66 50.5117 179.336 50.5781 179.062 50.7109C178.789 50.8359 178.578 51.0195 178.43 51.2617C178.281 51.4961 178.207 51.7734 178.207 52.0938H174.832C174.832 51.5547 174.957 51.043 175.207 50.5586C175.457 50.0742 175.82 49.6484 176.297 49.2812C176.773 48.9062 177.34 48.6133 177.996 48.4023C178.66 48.1914 179.402 48.0859 180.223 48.0859C181.207 48.0859 182.082 48.25 182.848 48.5781C183.613 48.9062 184.215 49.3984 184.652 50.0547C185.098 50.7109 185.32 51.5312 185.32 52.5156V57.9414C185.32 58.6367 185.363 59.207 185.449 59.6523C185.535 60.0898 185.66 60.4727 185.824 60.8008V61H182.414C182.25 60.6562 182.125 60.2266 182.039 59.7109C181.961 59.1875 181.922 58.6641 181.922 58.1406ZM182.367 53.2773L182.391 55.1875H180.504C180.059 55.1875 179.672 55.2383 179.344 55.3398C179.016 55.4414 178.746 55.5859 178.535 55.7734C178.324 55.9531 178.168 56.1641 178.066 56.4062C177.973 56.6484 177.926 56.9141 177.926 57.2031C177.926 57.4922 177.992 57.7539 178.125 57.9883C178.258 58.2148 178.449 58.3945 178.699 58.5273C178.949 58.6523 179.242 58.7148 179.578 58.7148C180.086 58.7148 180.527 58.6133 180.902 58.4102C181.277 58.207 181.566 57.957 181.77 57.6602C181.98 57.3633 182.09 57.082 182.098 56.8164L182.988 58.2461C182.863 58.5664 182.691 58.8984 182.473 59.2422C182.262 59.5859 181.992 59.9102 181.664 60.2148C181.336 60.5117 180.941 60.7578 180.48 60.9531C180.02 61.1406 179.473 61.2344 178.84 61.2344C178.035 61.2344 177.305 61.0742 176.648 60.7539C176 60.4258 175.484 59.9766 175.102 59.4062C174.727 58.8281 174.539 58.1719 174.539 57.4375C174.539 56.7734 174.664 56.1836 174.914 55.668C175.164 55.1523 175.531 54.7188 176.016 54.3672C176.508 54.0078 177.121 53.7383 177.855 53.5586C178.59 53.3711 179.441 53.2773 180.41 53.2773H182.367ZM191.227 51.0273V61H187.852V48.3203H191.016L191.227 51.0273ZM190.734 54.2148H189.82C189.82 53.2773 189.941 52.4336 190.184 51.6836C190.426 50.9258 190.766 50.2812 191.203 49.75C191.641 49.2109 192.16 48.8008 192.762 48.5195C193.371 48.2305 194.051 48.0859 194.801 48.0859C195.395 48.0859 195.938 48.1719 196.43 48.3438C196.922 48.5156 197.344 48.7891 197.695 49.1641C198.055 49.5391 198.328 50.0352 198.516 50.6523C198.711 51.2695 198.809 52.0234 198.809 52.9141V61H195.41V52.9023C195.41 52.3398 195.332 51.9023 195.176 51.5898C195.02 51.2773 194.789 51.0586 194.484 50.9336C194.188 50.8008 193.82 50.7344 193.383 50.7344C192.93 50.7344 192.535 50.8242 192.199 51.0039C191.871 51.1836 191.598 51.4336 191.379 51.7539C191.168 52.0664 191.008 52.4336 190.898 52.8555C190.789 53.2773 190.734 53.7305 190.734 54.2148ZM208.523 46.8555L203.883 61H200.145L206.484 43.9375H208.863L208.523 46.8555ZM212.379 61L207.727 46.8555L207.352 43.9375H209.754L216.129 61H212.379ZM212.168 54.6484V57.4023H203.156V54.6484H212.168ZM221.449 43.9375V61H217.945V43.9375H221.449Z" fill="#888888"/>
<path d="M109.219 107.422H100.734V101.07H109.219C110.375 101.07 111.312 100.875 112.031 100.484C112.75 100.094 113.273 99.5547 113.602 98.8672C113.945 98.1641 114.117 97.375 114.117 96.5C114.117 95.5625 113.945 94.6953 113.602 93.8984C113.273 93.1016 112.75 92.4609 112.031 91.9766C111.312 91.4766 110.375 91.2266 109.219 91.2266H103.828V119H95.6016V84.875H109.219C111.953 84.875 114.305 85.375 116.273 86.375C118.258 87.375 119.781 88.75 120.844 90.5C121.906 92.2344 122.438 94.2188 122.438 96.4531C122.438 98.6562 121.906 100.578 120.844 102.219C119.781 103.859 118.258 105.141 116.273 106.062C114.305 106.969 111.953 107.422 109.219 107.422ZM138.445 119.469C136.383 119.469 134.539 119.148 132.914 118.508C131.289 117.852 129.914 116.953 128.789 115.812C127.68 114.672 126.828 113.359 126.234 111.875C125.656 110.391 125.367 108.82 125.367 107.164V106.273C125.367 104.414 125.625 102.695 126.141 101.117C126.656 99.5234 127.422 98.1328 128.438 96.9453C129.453 95.7578 130.727 94.8359 132.258 94.1797C133.789 93.5078 135.57 93.1719 137.602 93.1719C139.398 93.1719 141.008 93.4609 142.43 94.0391C143.852 94.6172 145.055 95.4453 146.039 96.5234C147.039 97.6016 147.797 98.9062 148.312 100.438C148.844 101.969 149.109 103.688 149.109 105.594V108.805H128.391V103.859H141.398V103.25C141.414 102.406 141.266 101.688 140.953 101.094C140.656 100.5 140.219 100.047 139.641 99.7344C139.062 99.4219 138.359 99.2656 137.531 99.2656C136.672 99.2656 135.961 99.4531 135.398 99.8281C134.852 100.203 134.422 100.719 134.109 101.375C133.812 102.016 133.602 102.758 133.477 103.602C133.352 104.445 133.289 105.336 133.289 106.273V107.164C133.289 108.102 133.414 108.953 133.664 109.719C133.93 110.484 134.305 111.141 134.789 111.688C135.289 112.219 135.883 112.633 136.57 112.93C137.273 113.227 138.07 113.375 138.961 113.375C140.039 113.375 141.102 113.172 142.148 112.766C143.195 112.359 144.094 111.688 144.844 110.75L148.43 115.016C147.914 115.75 147.18 116.461 146.227 117.148C145.289 117.836 144.164 118.398 142.852 118.836C141.539 119.258 140.07 119.469 138.445 119.469ZM160.289 99.9219V119H152.391V93.6406H159.773L160.289 99.9219ZM167.789 93.4531L167.648 100.789C167.336 100.758 166.914 100.719 166.383 100.672C165.852 100.625 165.406 100.602 165.047 100.602C164.125 100.602 163.328 100.711 162.656 100.93C162 101.133 161.453 101.445 161.016 101.867C160.594 102.273 160.281 102.789 160.078 103.414C159.891 104.039 159.805 104.766 159.82 105.594L158.391 104.656C158.391 102.953 158.555 101.406 158.883 100.016C159.227 98.6094 159.711 97.3984 160.336 96.3828C160.961 95.3516 161.719 94.5625 162.609 94.0156C163.5 93.4531 164.5 93.1719 165.609 93.1719C166 93.1719 166.383 93.1953 166.758 93.2422C167.148 93.2891 167.492 93.3594 167.789 93.4531ZM180.703 119H172.758V91.5781C172.758 89.6094 173.156 87.9531 173.953 86.6094C174.75 85.2656 175.875 84.25 177.328 83.5625C178.781 82.8594 180.5 82.5078 182.484 82.5078C183.172 82.5078 183.82 82.5547 184.43 82.6484C185.039 82.7422 185.633 82.8594 186.211 83L186.234 88.8125C185.953 88.7344 185.664 88.6797 185.367 88.6484C185.07 88.6172 184.703 88.6016 184.266 88.6016C183.5 88.6016 182.852 88.7188 182.32 88.9531C181.789 89.1719 181.383 89.5078 181.102 89.9609C180.836 90.3984 180.703 90.9375 180.703 91.5781V119ZM185.625 93.6406V99.125H169.102V93.6406H185.625ZM187.477 106.578V106.086C187.477 104.227 187.742 102.516 188.273 100.953C188.805 99.375 189.586 98.0078 190.617 96.8516C191.648 95.6953 192.922 94.7969 194.438 94.1562C195.953 93.5 197.703 93.1719 199.688 93.1719C201.688 93.1719 203.445 93.5 204.961 94.1562C206.492 94.7969 207.773 95.6953 208.805 96.8516C209.836 98.0078 210.617 99.375 211.148 100.953C211.68 102.516 211.945 104.227 211.945 106.086V106.578C211.945 108.422 211.68 110.133 211.148 111.711C210.617 113.273 209.836 114.641 208.805 115.812C207.773 116.969 206.5 117.867 204.984 118.508C203.469 119.148 201.719 119.469 199.734 119.469C197.75 119.469 195.992 119.148 194.461 118.508C192.93 117.867 191.648 116.969 190.617 115.812C189.586 114.641 188.805 113.273 188.273 111.711C187.742 110.133 187.477 108.422 187.477 106.578ZM195.375 106.086V106.578C195.375 107.531 195.445 108.422 195.586 109.25C195.727 110.078 195.961 110.805 196.289 111.43C196.617 112.039 197.062 112.516 197.625 112.859C198.188 113.203 198.891 113.375 199.734 113.375C200.562 113.375 201.25 113.203 201.797 112.859C202.359 112.516 202.805 112.039 203.133 111.43C203.461 110.805 203.695 110.078 203.836 109.25C203.977 108.422 204.047 107.531 204.047 106.578V106.086C204.047 105.164 203.977 104.297 203.836 103.484C203.695 102.656 203.461 101.93 203.133 101.305C202.805 100.664 202.359 100.164 201.797 99.8047C201.234 99.4453 200.531 99.2656 199.688 99.2656C198.859 99.2656 198.164 99.4453 197.602 99.8047C197.055 100.164 196.617 100.664 196.289 101.305C195.961 101.93 195.727 102.656 195.586 103.484C195.445 104.297 195.375 105.164 195.375 106.086ZM223.43 99.9219V119H215.531V93.6406H222.914L223.43 99.9219ZM230.93 93.4531L230.789 100.789C230.477 100.758 230.055 100.719 229.523 100.672C228.992 100.625 228.547 100.602 228.188 100.602C227.266 100.602 226.469 100.711 225.797 100.93C225.141 101.133 224.594 101.445 224.156 101.867C223.734 102.273 223.422 102.789 223.219 103.414C223.031 104.039 222.945 104.766 222.961 105.594L221.531 104.656C221.531 102.953 221.695 101.406 222.023 100.016C222.367 98.6094 222.852 97.3984 223.477 96.3828C224.102 95.3516 224.859 94.5625 225.75 94.0156C226.641 93.4531 227.641 93.1719 228.75 93.1719C229.141 93.1719 229.523 93.1953 229.898 93.2422C230.289 93.2891 230.633 93.3594 230.93 93.4531ZM241.617 99.0078V119H233.719V93.6406H241.125L241.617 99.0078ZM240.656 105.453L238.852 105.5C238.852 103.719 239.062 102.078 239.484 100.578C239.906 99.0781 240.531 97.7734 241.359 96.6641C242.188 95.5547 243.203 94.6953 244.406 94.0859C245.625 93.4766 247.031 93.1719 248.625 93.1719C249.734 93.1719 250.742 93.3438 251.648 93.6875C252.555 94.0156 253.336 94.5391 253.992 95.2578C254.648 95.9609 255.148 96.8828 255.492 98.0234C255.852 99.1484 256.031 100.5 256.031 102.078V119H248.133V103.086C248.133 102.008 248.008 101.195 247.758 100.648C247.523 100.102 247.18 99.7344 246.727 99.5469C246.273 99.3594 245.719 99.2656 245.062 99.2656C244.375 99.2656 243.758 99.4219 243.211 99.7344C242.664 100.047 242.195 100.484 241.805 101.047C241.43 101.594 241.141 102.242 240.938 102.992C240.75 103.742 240.656 104.562 240.656 105.453ZM255.141 105.453L252.938 105.5C252.938 103.719 253.133 102.078 253.523 100.578C253.93 99.0781 254.531 97.7734 255.328 96.6641C256.141 95.5547 257.148 94.6953 258.352 94.0859C259.555 93.4766 260.953 93.1719 262.547 93.1719C263.703 93.1719 264.766 93.3438 265.734 93.6875C266.703 94.0312 267.539 94.5859 268.242 95.3516C268.945 96.1172 269.492 97.1328 269.883 98.3984C270.273 99.6484 270.469 101.195 270.469 103.039V119H262.547V103.039C262.547 101.992 262.422 101.203 262.172 100.672C261.938 100.125 261.594 99.7578 261.141 99.5703C260.688 99.3672 260.148 99.2656 259.523 99.2656C258.773 99.2656 258.125 99.4219 257.578 99.7344C257.031 100.047 256.57 100.484 256.195 101.047C255.836 101.594 255.57 102.242 255.398 102.992C255.227 103.742 255.141 104.562 255.141 105.453ZM288.164 112.625V102.172C288.164 101.453 288.062 100.836 287.859 100.32C287.656 99.8047 287.336 99.4062 286.898 99.125C286.461 98.8281 285.875 98.6797 285.141 98.6797C284.547 98.6797 284.039 98.7812 283.617 98.9844C283.195 99.1875 282.875 99.4922 282.656 99.8984C282.438 100.305 282.328 100.82 282.328 101.445H274.43C274.43 100.273 274.688 99.1875 275.203 98.1875C275.734 97.1719 276.484 96.2891 277.453 95.5391C278.438 94.7891 279.609 94.2109 280.969 93.8047C282.344 93.3828 283.875 93.1719 285.562 93.1719C287.578 93.1719 289.375 93.5078 290.953 94.1797C292.547 94.8516 293.805 95.8594 294.727 97.2031C295.648 98.5312 296.109 100.203 296.109 102.219V112.602C296.109 114.258 296.203 115.516 296.391 116.375C296.578 117.219 296.844 117.961 297.188 118.602V119H289.266C288.891 118.219 288.609 117.266 288.422 116.141C288.25 115 288.164 113.828 288.164 112.625ZM289.125 103.508L289.172 107.727H285.68C284.945 107.727 284.32 107.828 283.805 108.031C283.305 108.234 282.898 108.516 282.586 108.875C282.289 109.219 282.07 109.609 281.93 110.047C281.805 110.484 281.742 110.945 281.742 111.43C281.742 111.898 281.852 112.32 282.07 112.695C282.305 113.055 282.617 113.336 283.008 113.539C283.398 113.742 283.836 113.844 284.32 113.844C285.195 113.844 285.938 113.68 286.547 113.352C287.172 113.008 287.648 112.594 287.977 112.109C288.305 111.625 288.469 111.172 288.469 110.75L290.203 113.984C289.891 114.609 289.531 115.242 289.125 115.883C288.734 116.523 288.242 117.117 287.648 117.664C287.07 118.195 286.359 118.633 285.516 118.977C284.672 119.305 283.648 119.469 282.445 119.469C280.883 119.469 279.445 119.148 278.133 118.508C276.836 117.867 275.797 116.977 275.016 115.836C274.234 114.68 273.844 113.352 273.844 111.852C273.844 110.539 274.078 109.367 274.547 108.336C275.031 107.305 275.758 106.43 276.727 105.711C277.695 104.992 278.93 104.445 280.43 104.07C281.93 103.695 283.695 103.508 285.727 103.508H289.125ZM308.25 99.0547V119H300.352V93.6406H307.758L308.25 99.0547ZM307.312 105.453L305.461 105.5C305.461 103.562 305.695 101.836 306.164 100.32C306.633 98.7891 307.297 97.4922 308.156 96.4297C309.016 95.3672 310.039 94.5625 311.227 94.0156C312.43 93.4531 313.766 93.1719 315.234 93.1719C316.406 93.1719 317.477 93.3438 318.445 93.6875C319.43 94.0312 320.273 94.5859 320.977 95.3516C321.695 96.1172 322.242 97.1328 322.617 98.3984C323.008 99.6484 323.203 101.195 323.203 103.039V119H315.258V103.016C315.258 102 315.117 101.227 314.836 100.695C314.555 100.148 314.148 99.7734 313.617 99.5703C313.086 99.3672 312.438 99.2656 311.672 99.2656C310.859 99.2656 310.172 99.4219 309.609 99.7344C309.047 100.047 308.594 100.484 308.25 101.047C307.922 101.594 307.68 102.242 307.523 102.992C307.383 103.742 307.312 104.562 307.312 105.453ZM338.297 113.375C339.031 113.375 339.656 113.242 340.172 112.977C340.703 112.695 341.102 112.305 341.367 111.805C341.648 111.289 341.781 110.672 341.766 109.953H349.195C349.211 111.859 348.742 113.531 347.789 114.969C346.852 116.391 345.57 117.5 343.945 118.297C342.336 119.078 340.516 119.469 338.484 119.469C336.5 119.469 334.766 119.148 333.281 118.508C331.797 117.852 330.555 116.945 329.555 115.789C328.57 114.617 327.828 113.25 327.328 111.688C326.844 110.125 326.602 108.43 326.602 106.602V106.062C326.602 104.234 326.844 102.539 327.328 100.977C327.828 99.3984 328.57 98.0312 329.555 96.875C330.555 95.7031 331.789 94.7969 333.258 94.1562C334.742 93.5 336.469 93.1719 338.438 93.1719C340.547 93.1719 342.406 93.5703 344.016 94.3672C345.641 95.1641 346.914 96.3203 347.836 97.8359C348.758 99.3516 349.211 101.188 349.195 103.344H341.766C341.781 102.578 341.664 101.891 341.414 101.281C341.164 100.672 340.773 100.188 340.242 99.8281C339.727 99.4531 339.062 99.2656 338.25 99.2656C337.438 99.2656 336.781 99.4453 336.281 99.8047C335.781 100.164 335.398 100.664 335.133 101.305C334.883 101.93 334.711 102.648 334.617 103.461C334.539 104.273 334.5 105.141 334.5 106.062V106.602C334.5 107.539 334.539 108.422 334.617 109.25C334.711 110.062 334.891 110.781 335.156 111.406C335.422 112.016 335.805 112.5 336.305 112.859C336.805 113.203 337.469 113.375 338.297 113.375ZM364.852 119.469C362.789 119.469 360.945 119.148 359.32 118.508C357.695 117.852 356.32 116.953 355.195 115.812C354.086 114.672 353.234 113.359 352.641 111.875C352.062 110.391 351.773 108.82 351.773 107.164V106.273C351.773 104.414 352.031 102.695 352.547 101.117C353.062 99.5234 353.828 98.1328 354.844 96.9453C355.859 95.7578 357.133 94.8359 358.664 94.1797C360.195 93.5078 361.977 93.1719 364.008 93.1719C365.805 93.1719 367.414 93.4609 368.836 94.0391C370.258 94.6172 371.461 95.4453 372.445 96.5234C373.445 97.6016 374.203 98.9062 374.719 100.438C375.25 101.969 375.516 103.688 375.516 105.594V108.805H354.797V103.859H367.805V103.25C367.82 102.406 367.672 101.688 367.359 101.094C367.062 100.5 366.625 100.047 366.047 99.7344C365.469 99.4219 364.766 99.2656 363.938 99.2656C363.078 99.2656 362.367 99.4531 361.805 99.8281C361.258 100.203 360.828 100.719 360.516 101.375C360.219 102.016 360.008 102.758 359.883 103.602C359.758 104.445 359.695 105.336 359.695 106.273V107.164C359.695 108.102 359.82 108.953 360.07 109.719C360.336 110.484 360.711 111.141 361.195 111.688C361.695 112.219 362.289 112.633 362.977 112.93C363.68 113.227 364.477 113.375 365.367 113.375C366.445 113.375 367.508 113.172 368.555 112.766C369.602 112.359 370.5 111.688 371.25 110.75L374.836 115.016C374.32 115.75 373.586 116.461 372.633 117.148C371.695 117.836 370.57 118.398 369.258 118.836C367.945 119.258 366.477 119.469 364.852 119.469Z" fill="black"/>
<path d="M1134 0H1348C1356.28 0 1363 6.71573 1363 15V148C1363 156.284 1356.28 163 1348 163H1134V0Z" fill="#3A4972"/>
<path fill-rule="evenodd" clip-rule="evenodd" d="M1220.21 53.212C1219.33 54.0907 1219.33 55.5049 1219.33 58.3333V104.667C1219.33 107.495 1219.33 108.909 1220.21 109.788C1221.09 110.667 1222.5 110.667 1225.33 110.667H1271.67C1274.5 110.667 1275.91 110.667 1276.79 109.788C1277.67 108.909 1277.67 107.495 1277.67 104.667V58.3333C1277.67 55.5049 1277.67 54.0907 1276.79 53.212C1275.91 52.3333 1274.5 52.3333 1271.67 52.3333H1225.33C1222.5 52.3333 1221.09 52.3333 1220.21 53.212ZM1263.92 73.3047C1264.22 72.8452 1264.1 72.2243 1263.64 71.9179C1263.18 71.6116 1262.56 71.7358 1262.25 72.1953L1251.54 88.2615L1247.25 79.6774C1246.56 78.3038 1244.65 78.1847 1243.8 79.4624L1233.08 95.5286C1232.78 95.9881 1232.9 96.609 1233.36 96.9154C1233.82 97.2217 1234.44 97.0975 1234.75 96.638L1245.46 80.5718L1249.75 89.1559C1250.44 90.5295 1252.35 90.6486 1253.2 89.3709L1263.92 73.3047Z" fill="white"/>
</svg>
