<svg width="1363" height="163" viewBox="0 0 1363 163" fill="none" xmlns="http://www.w3.org/2000/svg">
<path d="M0 15C0 6.71573 6.71573 0 15 0H37V163H15C6.71573 163 0 156.284 0 148V15Z" fill="#3A4972"/>
<rect width="1097" height="163" transform="translate(37)" fill="#F0F0F0"/>
<path d="M101.906 53.9219L94.3945 51.2383V48.0859L104.602 52.375V54.6367L101.906 53.9219ZM94.3945 56.1719L101.918 53.4297L104.602 52.7852V55.0352L94.3945 59.3242V56.1719ZM118.137 61H114.422L114.445 58.2578H118.137C119.059 58.2578 119.836 58.0508 120.469 57.6367C121.102 57.2148 121.578 56.6016 121.898 55.7969C122.227 54.9922 122.391 54.0195 122.391 52.8789V52.0469C122.391 51.1719 122.297 50.4023 122.109 49.7383C121.93 49.0742 121.66 48.5156 121.301 48.0625C120.941 47.6094 120.5 47.2695 119.977 47.043C119.453 46.8086 118.852 46.6914 118.172 46.6914H114.352V43.9375H118.172C119.312 43.9375 120.355 44.1328 121.301 44.5234C122.254 44.9062 123.078 45.457 123.773 46.1758C124.469 46.8945 125.004 47.7539 125.379 48.7539C125.762 49.7461 125.953 50.8516 125.953 52.0703V52.8789C125.953 54.0898 125.762 55.1953 125.379 56.1953C125.004 57.1953 124.469 58.0547 123.773 58.7734C123.086 59.4844 122.262 60.0352 121.301 60.4258C120.348 60.8086 119.293 61 118.137 61ZM116.414 43.9375V61H112.898V43.9375H116.414ZM134.133 61.2344C133.148 61.2344 132.266 61.0781 131.484 60.7656C130.703 60.4453 130.039 60.0039 129.492 59.4414C128.953 58.8789 128.539 58.2266 128.25 57.4844C127.961 56.7344 127.816 55.9375 127.816 55.0938V54.625C127.816 53.6641 127.953 52.7852 128.227 51.9883C128.5 51.1914 128.891 50.5 129.398 49.9141C129.914 49.3281 130.539 48.8789 131.273 48.5664C132.008 48.2461 132.836 48.0859 133.758 48.0859C134.656 48.0859 135.453 48.2344 136.148 48.5312C136.844 48.8281 137.426 49.25 137.895 49.7969C138.371 50.3438 138.73 51 138.973 51.7656C139.215 52.5234 139.336 53.3672 139.336 54.2969V55.7031H129.258V53.4531H136.02V53.1953C136.02 52.7266 135.934 52.3086 135.762 51.9414C135.598 51.5664 135.348 51.2695 135.012 51.0508C134.676 50.832 134.246 50.7227 133.723 50.7227C133.277 50.7227 132.895 50.8203 132.574 51.0156C132.254 51.2109 131.992 51.4844 131.789 51.8359C131.594 52.1875 131.445 52.6016 131.344 53.0781C131.25 53.5469 131.203 54.0625 131.203 54.625V55.0938C131.203 55.6016 131.273 56.0703 131.414 56.5C131.562 56.9297 131.77 57.3008 132.035 57.6133C132.309 57.9258 132.637 58.168 133.02 58.3398C133.41 58.5117 133.852 58.5977 134.344 58.5977C134.953 58.5977 135.52 58.4805 136.043 58.2461C136.574 58.0039 137.031 57.6406 137.414 57.1562L139.055 58.9375C138.789 59.3203 138.426 59.6875 137.965 60.0391C137.512 60.3906 136.965 60.6797 136.324 60.9062C135.684 61.125 134.953 61.2344 134.133 61.2344ZM145.406 58.5391L148.219 48.3203H151.746L147.469 61H145.336L145.406 58.5391ZM143.473 48.3203L146.297 58.5508L146.355 61H144.211L139.934 48.3203H143.473ZM160.113 54.918H155.766V52.1758H160.113C160.785 52.1758 161.332 52.0664 161.754 51.8477C162.176 51.6211 162.484 51.3086 162.68 50.9102C162.875 50.5117 162.973 50.0625 162.973 49.5625C162.973 49.0547 162.875 48.582 162.68 48.1445C162.484 47.707 162.176 47.3555 161.754 47.0898C161.332 46.8242 160.785 46.6914 160.113 46.6914H156.984V61H153.469V43.9375H160.113C161.449 43.9375 162.594 44.1797 163.547 44.6641C164.508 45.1406 165.242 45.8008 165.75 46.6445C166.258 47.4883 166.512 48.4531 166.512 49.5391C166.512 50.6406 166.258 51.5938 165.75 52.3984C165.242 53.2031 164.508 53.8242 163.547 54.2617C162.594 54.6992 161.449 54.918 160.113 54.918ZM172.289 43V61H168.902V43H172.289ZM181.922 58.1406V52.4922C181.922 52.0859 181.855 51.7383 181.723 51.4492C181.59 51.1523 181.383 50.9219 181.102 50.7578C180.828 50.5938 180.473 50.5117 180.035 50.5117C179.66 50.5117 179.336 50.5781 179.062 50.7109C178.789 50.8359 178.578 51.0195 178.43 51.2617C178.281 51.4961 178.207 51.7734 178.207 52.0938H174.832C174.832 51.5547 174.957 51.043 175.207 50.5586C175.457 50.0742 175.82 49.6484 176.297 49.2812C176.773 48.9062 177.34 48.6133 177.996 48.4023C178.66 48.1914 179.402 48.0859 180.223 48.0859C181.207 48.0859 182.082 48.25 182.848 48.5781C183.613 48.9062 184.215 49.3984 184.652 50.0547C185.098 50.7109 185.32 51.5312 185.32 52.5156V57.9414C185.32 58.6367 185.363 59.207 185.449 59.6523C185.535 60.0898 185.66 60.4727 185.824 60.8008V61H182.414C182.25 60.6562 182.125 60.2266 182.039 59.7109C181.961 59.1875 181.922 58.6641 181.922 58.1406ZM182.367 53.2773L182.391 55.1875H180.504C180.059 55.1875 179.672 55.2383 179.344 55.3398C179.016 55.4414 178.746 55.5859 178.535 55.7734C178.324 55.9531 178.168 56.1641 178.066 56.4062C177.973 56.6484 177.926 56.9141 177.926 57.2031C177.926 57.4922 177.992 57.7539 178.125 57.9883C178.258 58.2148 178.449 58.3945 178.699 58.5273C178.949 58.6523 179.242 58.7148 179.578 58.7148C180.086 58.7148 180.527 58.6133 180.902 58.4102C181.277 58.207 181.566 57.957 181.77 57.6602C181.98 57.3633 182.09 57.082 182.098 56.8164L182.988 58.2461C182.863 58.5664 182.691 58.8984 182.473 59.2422C182.262 59.5859 181.992 59.9102 181.664 60.2148C181.336 60.5117 180.941 60.7578 180.48 60.9531C180.02 61.1406 179.473 61.2344 178.84 61.2344C178.035 61.2344 177.305 61.0742 176.648 60.7539C176 60.4258 175.484 59.9766 175.102 59.4062C174.727 58.8281 174.539 58.1719 174.539 57.4375C174.539 56.7734 174.664 56.1836 174.914 55.668C175.164 55.1523 175.531 54.7188 176.016 54.3672C176.508 54.0078 177.121 53.7383 177.855 53.5586C178.59 53.3711 179.441 53.2773 180.41 53.2773H182.367ZM191.227 51.0273V61H187.852V48.3203H191.016L191.227 51.0273ZM190.734 54.2148H189.82C189.82 53.2773 189.941 52.4336 190.184 51.6836C190.426 50.9258 190.766 50.2812 191.203 49.75C191.641 49.2109 192.16 48.8008 192.762 48.5195C193.371 48.2305 194.051 48.0859 194.801 48.0859C195.395 48.0859 195.938 48.1719 196.43 48.3438C196.922 48.5156 197.344 48.7891 197.695 49.1641C198.055 49.5391 198.328 50.0352 198.516 50.6523C198.711 51.2695 198.809 52.0234 198.809 52.9141V61H195.41V52.9023C195.41 52.3398 195.332 51.9023 195.176 51.5898C195.02 51.2773 194.789 51.0586 194.484 50.9336C194.188 50.8008 193.82 50.7344 193.383 50.7344C192.93 50.7344 192.535 50.8242 192.199 51.0039C191.871 51.1836 191.598 51.4336 191.379 51.7539C191.168 52.0664 191.008 52.4336 190.898 52.8555C190.789 53.2773 190.734 53.7305 190.734 54.2148ZM208.523 46.8555L203.883 61H200.145L206.484 43.9375H208.863L208.523 46.8555ZM212.379 61L207.727 46.8555L207.352 43.9375H209.754L216.129 61H212.379ZM212.168 54.6484V57.4023H203.156V54.6484H212.168ZM221.449 43.9375V61H217.945V43.9375H221.449Z" fill="#888888"/>
<path d="M124.477 101.258V102.641C124.477 105.25 124.109 107.594 123.375 109.672C122.656 111.734 121.633 113.5 120.305 114.969C118.977 116.422 117.406 117.539 115.594 118.32C113.781 119.086 111.781 119.469 109.594 119.469C107.391 119.469 105.375 119.086 103.547 118.32C101.734 117.539 100.156 116.422 98.8125 114.969C97.4844 113.5 96.4531 111.734 95.7188 109.672C95 107.594 94.6406 105.25 94.6406 102.641V101.258C94.6406 98.6484 95 96.3047 95.7188 94.2266C96.4531 92.1484 97.4766 90.3828 98.7891 88.9297C100.117 87.4609 101.688 86.3438 103.5 85.5781C105.328 84.7969 107.344 84.4062 109.547 84.4062C111.734 84.4062 113.734 84.7969 115.547 85.5781C117.375 86.3438 118.953 87.4609 120.281 88.9297C121.609 90.3828 122.641 92.1484 123.375 94.2266C124.109 96.3047 124.477 98.6484 124.477 101.258ZM116.133 102.641V101.211C116.133 99.5234 115.984 98.0391 115.688 96.7578C115.406 95.4609 114.984 94.375 114.422 93.5C113.859 92.625 113.164 91.9688 112.336 91.5312C111.523 91.0781 110.594 90.8516 109.547 90.8516C108.453 90.8516 107.5 91.0781 106.688 91.5312C105.875 91.9688 105.195 92.625 104.648 93.5C104.102 94.375 103.688 95.4609 103.406 96.7578C103.141 98.0391 103.008 99.5234 103.008 101.211V102.641C103.008 104.312 103.141 105.797 103.406 107.094C103.688 108.375 104.102 109.461 104.648 110.352C105.211 111.242 105.898 111.914 106.711 112.367C107.539 112.82 108.5 113.047 109.594 113.047C110.641 113.047 111.57 112.82 112.383 112.367C113.195 111.914 113.875 111.242 114.422 110.352C114.984 109.461 115.406 108.375 115.688 107.094C115.984 105.797 116.133 104.312 116.133 102.641ZM136.336 98.5156V128.75H128.438V93.6406H135.797L136.336 98.5156ZM151.898 106.016V106.508C151.898 108.352 151.688 110.062 151.266 111.641C150.844 113.219 150.219 114.594 149.391 115.766C148.562 116.938 147.531 117.852 146.297 118.508C145.078 119.148 143.664 119.469 142.055 119.469C140.539 119.469 139.234 119.133 138.141 118.461C137.047 117.789 136.133 116.859 135.398 115.672C134.664 114.484 134.07 113.125 133.617 111.594C133.164 110.062 132.805 108.445 132.539 106.742V106.109C132.805 104.281 133.164 102.586 133.617 101.023C134.07 99.4453 134.664 98.0703 135.398 96.8984C136.133 95.7266 137.039 94.8125 138.117 94.1562C139.211 93.5 140.516 93.1719 142.031 93.1719C143.641 93.1719 145.055 93.4766 146.273 94.0859C147.508 94.6953 148.539 95.5703 149.367 96.7109C150.211 97.8359 150.844 99.1875 151.266 100.766C151.688 102.344 151.898 104.094 151.898 106.016ZM144 106.508V106.016C144 105.031 143.93 104.133 143.789 103.32C143.648 102.492 143.422 101.773 143.109 101.164C142.812 100.555 142.414 100.086 141.914 99.7578C141.414 99.4297 140.797 99.2656 140.062 99.2656C139.219 99.2656 138.508 99.3984 137.93 99.6641C137.367 99.9141 136.914 100.305 136.57 100.836C136.242 101.352 136.008 102 135.867 102.781C135.742 103.547 135.688 104.445 135.703 105.477V107.398C135.672 108.586 135.789 109.633 136.055 110.539C136.32 111.43 136.781 112.125 137.438 112.625C138.094 113.125 138.984 113.375 140.109 113.375C140.859 113.375 141.484 113.203 141.984 112.859C142.484 112.5 142.883 112.008 143.18 111.383C143.477 110.742 143.688 110.008 143.812 109.18C143.938 108.352 144 107.461 144 106.508ZM167.695 119.469C165.633 119.469 163.789 119.148 162.164 118.508C160.539 117.852 159.164 116.953 158.039 115.812C156.93 114.672 156.078 113.359 155.484 111.875C154.906 110.391 154.617 108.82 154.617 107.164V106.273C154.617 104.414 154.875 102.695 155.391 101.117C155.906 99.5234 156.672 98.1328 157.688 96.9453C158.703 95.7578 159.977 94.8359 161.508 94.1797C163.039 93.5078 164.82 93.1719 166.852 93.1719C168.648 93.1719 170.258 93.4609 171.68 94.0391C173.102 94.6172 174.305 95.4453 175.289 96.5234C176.289 97.6016 177.047 98.9062 177.562 100.438C178.094 101.969 178.359 103.688 178.359 105.594V108.805H157.641V103.859H170.648V103.25C170.664 102.406 170.516 101.688 170.203 101.094C169.906 100.5 169.469 100.047 168.891 99.7344C168.312 99.4219 167.609 99.2656 166.781 99.2656C165.922 99.2656 165.211 99.4531 164.648 99.8281C164.102 100.203 163.672 100.719 163.359 101.375C163.062 102.016 162.852 102.758 162.727 103.602C162.602 104.445 162.539 105.336 162.539 106.273V107.164C162.539 108.102 162.664 108.953 162.914 109.719C163.18 110.484 163.555 111.141 164.039 111.688C164.539 112.219 165.133 112.633 165.82 112.93C166.523 113.227 167.32 113.375 168.211 113.375C169.289 113.375 170.352 113.172 171.398 112.766C172.445 112.359 173.344 111.688 174.094 110.75L177.68 115.016C177.164 115.75 176.43 116.461 175.477 117.148C174.539 117.836 173.414 118.398 172.102 118.836C170.789 119.258 169.32 119.469 167.695 119.469ZM189.328 99.0547V119H181.43V93.6406H188.836L189.328 99.0547ZM188.391 105.453L186.539 105.5C186.539 103.562 186.773 101.836 187.242 100.32C187.711 98.7891 188.375 97.4922 189.234 96.4297C190.094 95.3672 191.117 94.5625 192.305 94.0156C193.508 93.4531 194.844 93.1719 196.312 93.1719C197.484 93.1719 198.555 93.3438 199.523 93.6875C200.508 94.0312 201.352 94.5859 202.055 95.3516C202.773 96.1172 203.32 97.1328 203.695 98.3984C204.086 99.6484 204.281 101.195 204.281 103.039V119H196.336V103.016C196.336 102 196.195 101.227 195.914 100.695C195.633 100.148 195.227 99.7734 194.695 99.5703C194.164 99.3672 193.516 99.2656 192.75 99.2656C191.938 99.2656 191.25 99.4219 190.688 99.7344C190.125 100.047 189.672 100.484 189.328 101.047C189 101.594 188.758 102.242 188.602 102.992C188.461 103.742 188.391 104.562 188.391 105.453ZM223.5 92.0469L215.18 119H206.344L218.883 84.875H224.484L223.5 92.0469ZM230.391 119L222.047 92.0469L220.969 84.875H226.641L239.25 119H230.391ZM230.062 106.273V112.625H212.555V106.273H230.062ZM250.5 84.875V119H242.297V84.875H250.5Z" fill="black"/>
<path d="M1134 0H1348C1356.28 0 1363 6.71573 1363 15V148C1363 156.284 1356.28 163 1348 163H1134V0Z" fill="#3A4972"/>
<circle cx="1248.5" cy="81.5" r="2.91667" fill="white"/>
<path d="M1262.58 81.5C1262.58 89.4934 1260.96 96.7053 1258.36 101.9C1255.75 107.125 1252.24 110.167 1248.5 110.167C1244.76 110.167 1241.25 107.125 1238.64 101.9C1236.04 96.7053 1234.42 89.4934 1234.42 81.5C1234.42 73.5067 1236.04 66.2948 1238.64 61.0997C1241.25 55.8747 1244.76 52.8334 1248.5 52.8334C1252.24 52.8334 1255.75 55.8747 1258.36 61.0997C1260.96 66.2948 1262.58 73.5067 1262.58 81.5Z" stroke="white"/>
<path d="M1255.54 93.6961C1248.62 97.6928 1241.56 99.8949 1235.77 100.243C1229.93 100.593 1225.54 99.0681 1223.67 95.8329C1221.81 92.5978 1222.68 88.0316 1225.9 83.1566C1229.1 78.3096 1234.54 73.2998 1241.46 69.3031C1248.38 65.3064 1255.44 63.1043 1261.23 62.7563C1267.07 62.4063 1271.46 63.9311 1273.33 67.1663C1275.19 70.4015 1274.32 74.9676 1271.1 79.8426C1267.9 84.6896 1262.46 89.6995 1255.54 93.6961Z" stroke="white"/>
<path d="M1255.54 69.3034C1248.62 65.3067 1241.56 63.1046 1235.77 62.7566C1229.93 62.4066 1225.54 63.9314 1223.67 67.1666C1221.81 70.4017 1222.68 74.9679 1225.9 79.8429C1229.1 84.6899 1234.54 89.6997 1241.46 93.6964C1248.38 97.6931 1255.44 99.8952 1261.23 100.243C1267.07 100.593 1271.46 99.0684 1273.33 95.8332C1275.19 92.5981 1274.32 88.0319 1271.1 83.1569C1267.9 78.3099 1262.46 73.3001 1255.54 69.3034Z" stroke="white"/>
</svg>
